<svg width="239" height="131" viewBox="0 0 239 131" fill="none" xmlns="http://www.w3.org/2000/svg">
<path fill-rule="evenodd" clip-rule="evenodd" d="M65.1394 65.9296L5.1394 65.9296C5.1394 99.0667 32.0023 125.93 65.1394 125.93L65.1394 65.9296Z" fill="#22FFCC"/>
<path d="M65.1394 65.9296L70.1394 65.9296C70.1394 63.1682 67.9008 60.9296 65.1394 60.9296L65.1394 65.9296ZM5.1394 65.9296L5.1394 60.9296C2.37797 60.9296 0.139399 63.1682 0.139399 65.9296L5.1394 65.9296ZM65.1394 125.93L65.1394 130.93C67.9008 130.93 70.1394 128.691 70.1394 125.93L65.1394 125.93ZM65.1394 60.9296L5.1394 60.9296L5.1394 70.9296L65.1394 70.9296L65.1394 60.9296ZM0.139399 65.9296C0.139402 101.828 29.2409 130.93 65.1394 130.93L65.1394 120.93C34.7637 120.93 10.1394 96.3053 10.1394 65.9296L0.139399 65.9296ZM70.1394 125.93L70.1394 65.9296L60.1394 65.9296L60.1394 125.93L70.1394 125.93Z" fill="#002851"/>
<path fill-rule="evenodd" clip-rule="evenodd" d="M65.1394 95.9296L65.1394 125.93C81.708 125.93 95.1394 112.498 95.1394 95.9296L65.1394 95.9296Z" fill="#22FFCC"/>
<path d="M65.1394 95.9296L65.1394 90.9296C63.8133 90.9296 62.5416 91.4564 61.6039 92.3941C60.6662 93.3318 60.1394 94.6035 60.1394 95.9296L65.1394 95.9296ZM65.1394 125.93L60.1394 125.93C60.1394 128.691 62.378 130.93 65.1394 130.93L65.1394 125.93ZM95.1394 95.9296L100.139 95.9296C100.139 93.1682 97.9008 90.9296 95.1394 90.9296L95.1394 95.9296ZM60.1394 95.9296L60.1394 125.93L70.1394 125.93L70.1394 95.9296L60.1394 95.9296ZM65.1394 130.93C84.4694 130.93 100.139 115.26 100.139 95.9296L90.1394 95.9296C90.1394 109.737 78.9465 120.93 65.1394 120.93L65.1394 130.93ZM95.1394 90.9296L65.1394 90.9296L65.1394 100.93L95.1394 100.93L95.1394 90.9296Z" fill="#002851"/>
<path fill-rule="evenodd" clip-rule="evenodd" d="M125.139 65.9296C125.139 32.7925 98.2765 5.92963 65.1394 5.92963C32.0023 5.92963 5.1394 32.7925 5.1394 65.9296H125.139Z" fill="#22FFCC"/>
<path d="M125.139 65.9296V70.9296C127.901 70.9296 130.139 68.6911 130.139 65.9296H125.139ZM5.1394 65.9296H0.139404C0.139404 68.6911 2.37798 70.9296 5.1394 70.9296L5.1394 65.9296ZM65.1394 10.9296C95.5151 10.9296 120.139 35.554 120.139 65.9296H130.139C130.139 30.0311 101.038 0.929626 65.1394 0.929626V10.9296ZM10.1394 65.9296C10.1394 35.554 34.7637 10.9296 65.1394 10.9296V0.929626C29.2409 0.929626 0.139404 30.0311 0.139404 65.9296H10.1394ZM5.1394 70.9296H125.139V60.9296H5.1394V70.9296Z" fill="#002851"/>
<path fill-rule="evenodd" clip-rule="evenodd" d="M105.139 65.9296H165.139C165.139 32.7925 138.276 5.92963 105.139 5.92963V65.9296Z" fill="#22FFCC"/>
<path d="M105.139 65.9296H100.139C100.139 68.6911 102.378 70.9296 105.139 70.9296V65.9296ZM165.139 65.9296V70.9296C167.901 70.9296 170.139 68.6911 170.139 65.9296H165.139ZM105.139 5.92963V0.929626C102.378 0.929626 100.139 3.1682 100.139 5.92963L105.139 5.92963ZM105.139 70.9296H165.139V60.9296H105.139V70.9296ZM170.139 65.9296C170.139 30.0311 141.038 0.929626 105.139 0.929626V10.9296C135.515 10.9296 160.139 35.554 160.139 65.9296H170.139ZM100.139 5.92963V65.9296H110.139V5.92963H100.139Z" fill="#002851"/>
<circle cx="147.139" cy="25.9296" r="15" fill="#F39500" stroke="#002851" stroke-width="10" stroke-linejoin="round"/>
<circle cx="154.139" cy="25.9296" r="5" fill="#002851"/>
<path d="M238.436 76.6128V115.274H230.497V76.6128H238.436Z" fill="#002851"/>
<path d="M222.504 76.6128V115.274H214.565V76.6128H222.504Z" fill="#002851"/>
<path d="M200.863 102.449H208.803C208.643 105.051 207.927 107.361 206.652 109.379C205.395 111.397 203.634 112.973 201.368 114.106C199.12 115.239 196.411 115.805 193.243 115.805C190.764 115.805 188.543 115.38 186.578 114.531C184.613 113.663 182.931 112.424 181.533 110.813C180.152 109.202 179.099 107.255 178.373 104.971C177.647 102.688 177.284 100.13 177.284 97.2976V94.6158C177.284 91.7834 177.656 89.2255 178.399 86.9419C179.161 84.6406 180.24 82.6846 181.639 81.0737C183.055 79.4628 184.746 78.2236 186.711 77.3562C188.675 76.4888 190.871 76.0551 193.296 76.0551C196.518 76.0551 199.235 76.6393 201.448 77.8077C203.678 78.976 205.404 80.5869 206.625 82.6403C207.865 84.6938 208.608 87.0304 208.856 89.6503H200.89C200.801 88.0926 200.492 86.7737 199.961 85.6939C199.43 84.5964 198.624 83.7732 197.544 83.2245C196.482 82.658 195.066 82.3748 193.296 82.3748C191.968 82.3748 190.809 82.6226 189.817 83.1183C188.826 83.6139 187.994 84.3663 187.321 85.3753C186.649 86.3843 186.144 87.6589 185.808 89.1989C185.489 90.7213 185.33 92.5092 185.33 94.5627V97.2976C185.33 99.298 185.48 101.059 185.781 102.582C186.082 104.086 186.542 105.361 187.162 106.405C187.799 107.432 188.614 108.211 189.605 108.742C190.614 109.255 191.826 109.512 193.243 109.512C194.907 109.512 196.279 109.247 197.358 108.715C198.438 108.184 199.261 107.397 199.828 106.352C200.412 105.308 200.757 104.007 200.863 102.449Z" fill="#002851"/>
<path d="M165.07 105.157C165.07 104.467 164.964 103.847 164.751 103.299C164.556 102.732 164.185 102.219 163.636 101.759C163.087 101.281 162.317 100.811 161.326 100.351C160.334 99.891 159.051 99.413 157.476 98.9174C155.723 98.3509 154.059 97.7136 152.484 97.0055C150.926 96.2975 149.545 95.4743 148.341 94.5361C147.155 93.5802 146.217 92.4738 145.527 91.217C144.854 89.9601 144.518 88.4997 144.518 86.8357C144.518 85.2248 144.872 83.7644 145.58 82.4544C146.288 81.1268 147.279 79.9939 148.554 79.0556C149.828 78.0997 151.333 77.3651 153.068 76.8517C154.82 76.3384 156.741 76.0817 158.83 76.0817C161.68 76.0817 164.167 76.5951 166.291 77.6218C168.415 78.6485 170.062 80.0558 171.23 81.8437C172.416 83.6316 173.009 85.6762 173.009 87.9775H165.096C165.096 86.8446 164.857 85.8532 164.379 85.0035C163.919 84.1361 163.211 83.4546 162.255 82.959C161.317 82.4633 160.131 82.2155 158.697 82.2155C157.316 82.2155 156.166 82.4279 155.245 82.8527C154.325 83.2599 153.634 83.8175 153.174 84.5256C152.714 85.216 152.484 85.9949 152.484 86.8623C152.484 87.5172 152.643 88.1103 152.962 88.6413C153.298 89.1724 153.794 89.668 154.449 90.1283C155.104 90.5885 155.909 91.0222 156.865 91.4294C157.821 91.8365 158.927 92.2348 160.184 92.6243C162.291 93.2616 164.14 93.9785 165.734 94.7751C167.344 95.5717 168.69 96.4656 169.77 97.4569C170.849 98.4483 171.664 99.5723 172.213 100.829C172.761 102.086 173.036 103.511 173.036 105.104C173.036 106.786 172.708 108.291 172.053 109.618C171.398 110.946 170.451 112.07 169.212 112.991C167.973 113.911 166.495 114.61 164.778 115.088C163.061 115.566 161.14 115.805 159.016 115.805C157.104 115.805 155.219 115.557 153.36 115.062C151.501 114.548 149.811 113.778 148.288 112.752C146.784 111.725 145.58 110.415 144.677 108.822C143.774 107.228 143.323 105.343 143.323 103.166H151.315C151.315 104.37 151.501 105.387 151.873 106.219C152.245 107.051 152.767 107.724 153.44 108.238C154.13 108.751 154.944 109.123 155.882 109.353C156.838 109.583 157.883 109.698 159.016 109.698C160.396 109.698 161.529 109.503 162.414 109.114C163.317 108.724 163.981 108.184 164.406 107.494C164.848 106.804 165.07 106.025 165.07 105.157Z" fill="#002851"/>
<path d="M124.125 83.2245L113.61 115.274H105.139L119.505 76.6128H124.895L124.125 83.2245ZM132.861 115.274L122.319 83.2245L121.47 76.6128H126.913L141.358 115.274H132.861ZM132.383 100.882V107.122H111.964V100.882H132.383Z" fill="#002851"/>
</svg>
