<svg width="1243" height="681" viewBox="0 0 1243 681" fill="none" xmlns="http://www.w3.org/2000/svg">
<path fill-rule="evenodd" clip-rule="evenodd" d="M338.779 342.733H26.7292C26.7292 514.996 166.439 654.644 338.779 654.644V342.733Z" fill="#22FFCC"/>
<path d="M338.779 342.733H364.784C364.784 328.378 353.141 316.741 338.779 316.741V342.733ZM26.7292 342.733V316.741C12.3674 316.741 0.725006 328.378 0.725006 342.733H26.7292ZM338.779 654.644V680.636C353.141 680.636 364.784 668.997 364.784 654.644H338.779ZM338.779 316.741H26.7292V368.726H338.779V316.741ZM0.725006 342.733C0.725022 529.35 152.077 680.636 338.779 680.636V628.651C180.8 628.651 52.7334 500.641 52.7334 342.733H0.725006ZM364.784 654.644V342.733H312.775V654.644H364.784Z" fill="#1E262C"/>
<path fill-rule="evenodd" clip-rule="evenodd" d="M338.779 498.688V654.644C424.95 654.644 494.804 584.818 494.804 498.688H338.779Z" fill="#22FFCC"/>
<path d="M338.779 498.687V472.695C331.883 472.695 325.269 475.434 320.392 480.308C315.515 485.183 312.775 491.794 312.775 498.687H338.779ZM338.779 654.644H312.775C312.775 668.997 324.418 680.636 338.779 680.636V654.644ZM494.804 498.687H520.807C520.807 484.332 509.166 472.695 494.804 472.695V498.687ZM312.775 498.687V654.644H364.784V498.687H312.775ZM338.779 680.636C439.312 680.636 520.807 599.176 520.807 498.687H468.8C468.8 570.465 410.588 628.651 338.779 628.651V680.636ZM494.804 472.695H338.779V524.682H494.804V472.695Z" fill="#1E262C"/>
<path fill-rule="evenodd" clip-rule="evenodd" d="M650.828 342.733C650.828 170.471 511.12 30.825 338.779 30.825C166.439 30.825 26.7292 170.471 26.7292 342.733H650.828Z" fill="#22FFCC"/>
<path d="M650.828 342.733V368.726C665.192 368.726 676.832 357.089 676.832 342.733H650.828ZM26.7292 342.733H0.725006C0.725006 357.089 12.3675 368.726 26.7292 368.726V342.733ZM338.779 56.8172C496.758 56.8172 624.823 184.827 624.823 342.733H676.832C676.832 156.116 525.482 4.83264 338.779 4.83264V56.8172ZM52.7334 342.733C52.7334 184.827 180.8 56.8172 338.779 56.8172V4.83264C152.077 4.83264 0.725006 156.116 0.725006 342.733H52.7334ZM26.7292 368.726H650.828V316.741H26.7292V368.726Z" fill="#1E262C"/>
<path fill-rule="evenodd" clip-rule="evenodd" d="M546.811 342.733H858.861C858.861 170.471 719.151 30.825 546.811 30.825V342.733Z" fill="#22FFCC"/>
<path d="M546.811 342.733H520.807C520.807 357.089 532.451 368.726 546.811 368.726V342.733ZM858.861 342.733V368.726C873.226 368.726 884.865 357.089 884.865 342.733H858.861ZM546.811 30.825V4.83264C532.451 4.83264 520.807 16.4698 520.807 30.825H546.811ZM546.811 368.726H858.861V316.741H546.811V368.726ZM884.865 342.733C884.865 156.116 733.516 4.83264 546.811 4.83264V56.8172C704.791 56.8172 832.857 184.827 832.857 342.733H884.865ZM520.807 30.825V342.733H572.815V30.825H520.807Z" fill="#1E262C"/>
<path d="M765.246 212.771C808.331 212.771 843.258 177.86 843.258 134.794C843.258 91.7288 808.331 56.8172 765.246 56.8172C722.161 56.8172 687.233 91.7288 687.233 134.794C687.233 177.86 722.161 212.771 765.246 212.771Z" fill="#F39500"/>
<path d="M817.254 134.794C817.254 106.084 793.969 82.8096 765.246 82.8096C736.523 82.8096 713.238 106.084 713.238 134.794C713.238 163.505 736.523 186.779 765.246 186.779C793.969 186.779 817.254 163.505 817.254 134.794ZM869.263 134.794C869.263 192.215 822.693 238.764 765.246 238.764C707.799 238.764 661.229 192.215 661.229 134.794C661.229 77.3736 707.799 30.8249 765.246 30.8249C822.693 30.8249 869.263 77.3736 869.263 134.794Z" fill="#1E262C"/>
<path d="M801.652 160.787C816.014 160.787 827.656 149.15 827.656 134.794C827.656 120.439 816.014 108.802 801.652 108.802C787.29 108.802 775.648 120.439 775.648 134.794C775.648 149.15 787.29 160.787 801.652 160.787Z" fill="#1E262C"/>
<path d="M1240.07 398.27V599.249H1198.78V398.27H1240.07Z" fill="#1E262C"/>
<path d="M1157.21 398.27V599.249H1115.92V398.27H1157.21Z" fill="#1E262C"/>
<path d="M1044.66 532.578H1085.95C1085.12 546.105 1081.39 558.113 1074.76 568.604C1068.23 579.094 1059.07 587.287 1047.28 593.177C1035.59 599.067 1021.5 602.009 1005.03 602.009C992.132 602.009 980.581 599.8 970.362 595.386C960.142 590.874 951.394 584.433 944.124 576.058C936.941 567.684 931.465 557.562 927.689 545.689C923.913 533.821 922.025 520.523 922.025 505.799V491.858C922.025 477.134 923.96 463.836 927.824 451.965C931.787 440.002 937.399 429.834 944.675 421.459C952.039 413.085 960.834 406.643 971.053 402.134C981.268 397.625 992.689 395.37 1005.3 395.37C1022.06 395.37 1036.19 398.407 1047.7 404.481C1059.3 410.555 1068.27 418.929 1074.62 429.603C1081.07 440.278 1084.94 452.425 1086.23 466.045H1044.8C1044.33 457.947 1042.73 451.091 1039.96 445.477C1037.2 439.772 1033.01 435.493 1027.39 432.64C1021.87 429.695 1014.51 428.223 1005.3 428.223C998.394 428.223 992.366 429.511 987.207 432.088C982.053 434.665 977.726 438.576 974.226 443.821C970.731 449.066 968.105 455.692 966.357 463.698C964.698 471.612 963.871 480.907 963.871 491.582V505.799C963.871 516.198 964.651 525.352 966.217 533.27C967.782 541.088 970.175 547.716 973.399 553.143C976.712 558.482 980.951 562.532 986.105 565.292C991.352 567.959 997.656 569.295 1005.03 569.295C1013.68 569.295 1020.82 567.918 1026.43 565.152C1032.04 562.392 1036.32 558.3 1039.27 552.868C1042.31 547.441 1044.1 540.678 1044.66 532.578Z" fill="#1E262C"/>
<path d="M858.502 546.656C858.502 543.069 857.951 539.846 856.843 536.997C855.829 534.05 853.899 531.383 851.044 528.991C848.189 526.507 844.184 524.063 839.03 521.672C833.871 519.281 827.198 516.796 819.007 514.219C809.89 511.274 801.236 507.962 793.044 504.28C784.941 500.6 777.759 496.321 771.497 491.443C765.329 486.474 760.451 480.723 756.862 474.189C753.362 467.655 751.615 460.063 751.615 451.413C751.615 443.039 753.456 435.447 757.138 428.637C760.82 421.735 765.974 415.846 772.605 410.968C779.231 405.999 787.058 402.18 796.082 399.511C805.194 396.843 815.184 395.509 826.049 395.509C840.871 395.509 853.806 398.178 864.852 403.515C875.899 408.852 884.465 416.168 890.539 425.462C896.707 434.757 899.792 445.385 899.792 457.349H858.637C858.637 451.459 857.394 446.306 854.908 441.888C852.516 437.379 848.834 433.836 843.862 431.26C838.983 428.683 832.815 427.395 825.357 427.395C818.175 427.395 812.194 428.499 807.404 430.708C802.619 432.824 799.025 435.723 796.633 439.404C794.241 442.993 793.044 447.042 793.044 451.551C793.044 454.956 793.871 458.039 795.53 460.799C797.278 463.56 799.858 466.137 803.264 468.53C806.671 470.922 810.857 473.176 815.829 475.293C820.801 477.41 826.553 479.48 833.091 481.505C844.049 484.818 853.665 488.545 861.955 492.686C870.329 496.827 877.329 501.474 882.946 506.627C888.558 511.781 892.796 517.624 895.652 524.157C898.502 530.691 899.932 538.099 899.932 546.38C899.932 555.124 898.226 562.948 894.82 569.846C891.413 576.75 886.488 582.593 880.044 587.381C873.6 592.163 865.913 595.797 856.984 598.282C848.054 600.767 838.063 602.009 827.016 602.009C817.072 602.009 807.269 600.72 797.6 598.147C787.932 595.475 779.143 591.472 771.222 586.138C763.4 580.799 757.138 573.989 752.441 565.708C747.745 557.422 745.4 547.623 745.4 536.306H786.965C786.965 542.565 787.932 547.851 789.867 552.177C791.801 556.502 794.516 560 798.016 562.672C801.605 565.339 805.838 567.273 810.717 568.469C815.689 569.664 821.124 570.262 827.016 570.262C834.193 570.262 840.086 569.248 844.689 567.226C849.385 565.199 852.838 562.392 855.049 558.805C857.348 555.218 858.502 551.168 858.502 546.656Z" fill="#1E262C"/>
<path d="M645.554 432.64L590.867 599.249H546.811L621.526 398.27H649.559L645.554 432.64ZM690.988 599.249L636.161 432.64L631.746 398.27H660.054L735.18 599.249H690.988ZM688.502 524.432V556.871H582.306V524.432H688.502Z" fill="#1E262C"/>
</svg>
