<?xml version="1.0" encoding="utf-8"?>
<!-- Generator: Adobe Illustrator 24.0.3, SVG Export Plug-In . SVG Version: 6.00 Build 0)  -->
<svg version="1.1" id="Layer_1" xmlns="http://www.w3.org/2000/svg" xmlns:xlink="http://www.w3.org/1999/xlink" x="0px" y="0px"
	 viewBox="0 0 1473.9 2677.6" style="enable-background:new 0 0 1473.9 2677.6;" xml:space="preserve">
<style type="text/css">
	.st0{opacity:0.3;fill:#9C0303;}
	.st1{fill:#F9EA7D;stroke:#9C0303;stroke-width:5;stroke-linecap:round;stroke-linejoin:round;stroke-miterlimit:10;}
	.st2{fill:#9C0303;}
	.st3{opacity:0.2;fill:#FFFFFF;}
	.st4{opacity:0.2;}
	.st5{fill:#FFFBD7;}
	.st6{fill:none;stroke:#9C0303;stroke-width:5;stroke-linecap:round;stroke-linejoin:round;stroke-miterlimit:10;}
	.st7{fill:#FFFBD7;stroke:#9C0303;stroke-width:5;stroke-linecap:round;stroke-linejoin:round;stroke-miterlimit:10;}
	.st8{opacity:0.3;fill:#FFFFFF;}
	.st9{opacity:0.5;fill:#9C0303;}
	.st10{fill:#F9EA7D;}
	.st11{fill:#FFFFFF;}
	.st12{fill:#FF9F06;}
	.st13{fill:#B3F77F;}
	.st14{fill:#8E5400;}
	.st15{opacity:0.1;fill:#FFFFFF;}
</style>
<g>
	<path class="st0" d="M590,1857.6c-7.4,8.7-4.9,19.4,1.3,25.9c-15.2,17.3-40.3-8.3-25.4-25.9c20.4-24,52.8-34.4,83.6-30.8
		C626.7,1829.5,605.1,1839.9,590,1857.6z"/>
	<g>
		<g>
			<path class="st1" d="M1426.4,2141.5c-12.4,17.6-39.9,45.9-100.4,85.1c-79.2,51.2-188.3,103.2-307,146.4s-235.7,73.4-329.4,85
				c-71.6,8.9-110.8,4.8-131.6-0.7c-11.6-3.1-17.6-19.6-10.7-29.4c12.4-17.6,39.9-45.9,100.4-85.1c79.2-51.2,188.3-103.2,307-146.4
				s235.7-73.4,329.4-85c71.6-8.9,110.8-4.8,131.6,0.7C1427.3,2115.1,1433.3,2131.7,1426.4,2141.5z"/>
			<path class="st2" d="M1462.5,2299.7c-4.6,20.1-11.3,41-20.7,62.3c-1.6,3.5-3.2,7.1-4.9,10.7c-7.4,15.4-16.3,30.9-26.8,46.4
				c-51.1,75.2-141.9,150.4-298.9,207.5c-157,57.1-274.9,57.7-362.3,32.9c-18.1-5.1-34.8-11.3-50.4-18.3c-3.6-1.6-7.2-3.3-10.7-5
				c-20.9-10.3-39.5-22-55.9-34.4c-84.7-64.1-112.8-147-112.8-147c13.3,36.5,69.8,45.7,177.8,28.8c91.8-14.3,208.8-46.4,329.5-90.3
				c120.7-43.9,231-94.5,310.5-142.5c93.6-56.4,131-99.7,117.8-136.2C1454.6,2114.5,1486.3,2196.1,1462.5,2299.7z"/>
			<path class="st3" d="M1462.5,2299.7c-4.6,20.1-11.3,41-20.7,62.3c-1.6,3.5-3.2,7.1-4.9,10.6c-7.4,15.4-16.3,30.9-26.8,46.4
				c-15.6,23-35,46-58.8,68.5c0,0,10.3-92.3,51.1-150.3c40.8-58,0-130.8,0-130.8c44.7-35.3,61.5-64.9,52.6-91
				C1458,2123.9,1484.9,2202.1,1462.5,2299.7z"/>
			<path class="st4" d="M930.1,2671.3c-71.4,8.2-131.3,2.3-181.3-11.8c-18.1-5.1-34.8-11.3-50.4-18.3c-3.6-1.6-7.2-3.3-10.7-5
				c-20.9-10.3-39.4-22-55.9-34.4c-79.5-60.1-109.2-136.8-112.5-146c13.9,35.8,70.3,44.6,177.4,27.9c6.1-1,12.4-2,18.7-3.1
				c0,0,58.3,41.9,115.7,35.6c57.5-6.2,94.5,32.6,61.4,131.8C881.7,2680.6,930.1,2671.3,930.1,2671.3z"/>
			<g>
				<path class="st5" d="M1436.9,2372.6c-7.4,15.4-16.3,30.9-26.8,46.4c-12.1,8.8-24.8,17.4-38.1,26
					c-75.7,48.8-169.3,93.7-278.3,133.3c-109,39.6-209.6,65.4-298.9,76.6c-15.7,2-31.1,3.5-45.9,4.5c-18.1-5.1-34.8-11.3-50.4-18.3
					c4.1-0.1,8.3-0.2,12.5-0.4c133.6-5.2,277.6-48.4,374.9-83.8c176.4-64.1,282.9-131.4,341.2-176.6
					C1430.4,2377.8,1433.7,2375.2,1436.9,2372.6z"/>
			</g>
			<g>
				<g>
					<path class="st6" d="M1436.9,2372.6c-7.4,15.4-16.3,30.9-26.8,46.4c-12.1,8.8-24.8,17.4-38.1,26
						c-75.7,48.8-169.3,93.7-278.3,133.3c-109,39.6-209.6,65.4-298.9,76.6c-15.7,2-31.1,3.5-45.9,4.5c-18.1-5.1-34.8-11.3-50.4-18.3
						c4.1-0.1,8.3-0.2,12.5-0.4c133.6-5.2,277.6-48.4,374.9-83.8c176.4-64.1,282.9-131.4,341.2-176.6
						C1430.4,2377.8,1433.7,2375.2,1436.9,2372.6z"/>
				</g>
			</g>
			<path class="st6" d="M1111.1,2626.6C636,2799.4,519,2454.8,519,2454.8c13.3,36.5,69.8,45.7,177.8,28.8
				c91.8-14.3,208.8-46.4,329.5-90.3c120.7-43.9,231-94.5,310.5-142.5c93.6-56.4,131-99.7,117.8-136.2
				C1454.6,2114.6,1586.3,2453.8,1111.1,2626.6z"/>
			<path class="st7" d="M1346.8,2244.7c-3.3,2-6.6,4.1-10,6.1c-79.6,48-189.9,98.6-310.5,142.5c-5.2,1.9-10.4,3.8-15.6,5.6
				c-7.8,2.8-15.6,5.5-23.4,8.2c-106.7,36.8-208.6,63.7-290.5,76.5c-108,16.9-164.5,7.7-177.7-28.8c-4-10.9-3.4-22.3,1.7-34.5
				c5.7,0.8,11.4,1.4,17.1,2c4.3,0.4,8.6,0.7,12.9,0.9c-1.3,1.7-2.5,3.3-3.5,4.8c-6.9,9.8-0.9,26.4,10.7,29.4
				c20.8,5.5,60,9.6,131.6,0.7c17.4-2.2,35.7-5,54.5-8.4c1.2-0.2,2.3-0.4,3.5-0.6c6.6-1.2,13.4-2.5,20.2-3.9c1.5-0.3,3-0.6,4.5-0.9
				c17-3.5,34.5-7.4,52.5-11.8c0,0,0,0,0,0c40.1-9.8,82-21.7,124.7-35.5c9.1-2.9,18.3-6,27.4-9.1c4.2-1.4,8.4-2.9,12.6-4.3
				c0,0,0,0,0,0c9.8-3.4,19.6-6.8,29.4-10.4c0.4-0.1,0.8-0.3,1.2-0.4c19.6-7.1,38.8-14.5,57.8-22.1h0c23.6-9.4,46.6-19.1,68.9-29
				c0,0,0,0,0,0c13.8-6.1,27.3-12.4,40.5-18.7c26-12.4,50.7-25,73.9-37.8c0,0,0,0,0,0c18.9-10.4,36.7-20.8,53.4-31.3h0
				c3.7-2.3,7.4-4.6,10.9-6.9c0.1-0.1,0.2-0.1,0.3-0.2c2.5-1.6,5-3.2,7.4-4.8c4.7-3.1,9.1-6.1,13.4-9.1h0
				c34.4-23.8,55.7-43.1,68.8-57.7c4.4-4.9,7.8-9.2,10.6-13.1c0.1-0.1,0.2-0.2,0.3-0.4c0.4-0.6,0.8-1.2,1.1-1.9
				c0.8-1.7,1.4-3.5,1.6-5.3c0.1-0.4,0.1-0.7,0.1-1.1c0.1-1.1,0.1-2.2,0-3.4c-0.3-3.8-1.7-7.5-3.9-10.6c-0.6-0.9-1.4-1.8-2.1-2.6
				c-0.3-0.3-0.5-0.5-0.8-0.8c-1.4-1.2-2.9-2.3-4.6-3c-0.7-0.3-1.4-0.5-2.1-0.7c-15.9-4.2-42.4-7.6-85.8-5
				c-3.8-4.4-7.8-8.6-11.9-12.7c-12.6-12.3-30.3-0.7-31,12.7c-11.6-5.6-24.3-9-37.4-9.8c-13.8-0.9-19.3,11.4-16.9,21.9
				c-3.7,0.7-7.5,1.4-11.2,2.1c-1.3,0.2-2.6,0.5-4,0.7c-10.8,2.1-21.8,4.3-33.1,6.8c-3.1,0.7-6.2,1.4-9.4,2.1
				c-3.4,0.7-6.7,1.5-10.1,2.3c-2.7,0.7-5.5,1.3-8.2,2c-7.1,1.7-14.2,3.4-21.4,5.3c-6.2,1.6-12.5,3.2-18.8,4.9
				c-3.7-6.1-10.6-10.2-19.5-8c-51.9,12.6-98.7,38.2-147.7,58.5c-50,20.7-102.4,35.7-155.7,45.1c-14.3,2.5-15.9,17.1-9.5,26.7
				c-2.8,1.4-5.7,2.7-8.5,4.1l0,0c-10.5,4.2-20.7,9.1-30.5,15.2c0,0-0.1,0-0.1,0c-26.1,13.4-50.6,27-73.1,40.6
				c-17.9,4.9-36.5,5.8-54.5,2.9c6.1-3.9,12.6-7.9,19.3-11.9c79.6-48,189.9-98.6,310.5-142.5c58.5-21.3,116.1-39.8,170.4-54.8
				c1.8-0.5,3.6-1,5.4-1.5c6.9-1.9,13.8-3.7,20.5-5.5c1.7-0.5,3.4-0.9,5.1-1.4c1.6-0.4,3.2-0.8,4.8-1.2c1.8-0.5,3.6-0.9,5.4-1.4
				c1.7-0.4,3.4-0.9,5-1.3c0.5-0.1,1-0.2,1.5-0.4c2.5-0.6,5-1.2,7.4-1.8c10.4-2.5,20.6-4.9,30.6-7.1c1.6-0.4,3.2-0.7,4.8-1.1
				c9.1-2,18.2-3.8,27-5.6c1.6-0.3,3.2-0.6,4.8-0.9c1.6-0.3,3.1-0.6,4.7-0.9c1.4-0.3,2.8-0.6,4.2-0.8c0.5-0.1,1-0.2,1.4-0.3
				c2.3-0.4,4.6-0.8,6.9-1.3c6.6-1.2,13-2.2,19.3-3.2c108-16.9,164.5-7.7,177.8,28.8C1467.4,2149.7,1433.1,2191.2,1346.8,2244.7z"/>
		</g>
		<g>
			<path class="st1" d="M747.5,2448.9c-1.2,0.2-2.3,0.4-3.5,0.6c-18.9,3.4-37.1,6.2-54.5,8.4c-71.6,8.9-110.8,4.8-131.6-0.7
				c-11.6-3-17.6-19.6-10.7-29.4c1.1-1.5,2.2-3.1,3.5-4.8c-4.3-0.2-8.6-0.5-12.9-0.9c1.2-4.9,3.8-9.6,8.1-13.7
				c6.5-6.1,14.3-6.2,20.4-2.9c6.7,3.5,11.5,10.8,10.6,18.2c-0.2,1.6-0.6,3.2-1.3,4.7c0.6,0.2,1.1,0.4,1.7,0.6
				c2.2,0.8,4.7,1.2,7,1.7c6.7,1.2,13.6,1.6,20.3,2.1c13.5,0.9,27,1.1,40.6,0.6c9.8-0.4,19.5-1.3,29.2-2.5
				c6.6-0.8,13.1-1.9,19.6-3.1c8.7-1.6,17.3-3.6,25.9-5.9c3.1-0.8,6.2-1.7,9.2-2.6c4.7-1.4,8.9-0.9,12.2,0.7c3.4,1.6,6,4.4,7.7,7.7
				C752.8,2434.4,752.6,2443.1,747.5,2448.9z"/>
			<path class="st0" d="M1315,2194.5c-0.7,0.2-1.4,0.3-2.1,0.3c-0.1-0.1-0.2-0.3-0.3-0.4C1313.5,2194.4,1314.2,2194.4,1315,2194.5z"
				/>
			<path class="st1" d="M740.6,2326c-0.3,4.2-2.5,8.2-7.1,11.4c-1.7,1.2-3.5,2.4-5.3,3.5h0c-9.6,6.2-19.6,11.2-29.9,15.3
				c-4.4,1.7-8.9,3.3-13.4,4.6c-23.4,7-47.7,8.7-71.3,5.2c-11.9-1.7-23.5-4.7-34.8-9c-22.5-8.5-43.5-22.2-61.1-40.9l0,0
				c-2-2.1-4-4.3-5.8-6.5c-15.2-17.8,12.9-40.8,27.9-23.1c20.4,24.1,48.3,39,77.7,43.8c18,2.9,36.6,2.1,54.5-2.9
				c13.4-3.7,26.4-9.7,38.4-18c3-2.1,6.2-3.2,9.2-3.4C731.1,2305.2,741.4,2315.8,740.6,2326z"/>
			<path class="st0" d="M1402,2142.6c-0.4,1.6-1,3.3-1.9,5c-11.8,21.5-35.3,43.6-61.2,28.4c-10.6-6.2-16.2-17.4-22.6-27.4
				c0,0,0,0,0,0c-2.8-4.3-5.8-8.4-9-12.4c-4.6-5.7-9.6-11.1-14.8-16.2c-2.9-2.8-4.5-5.9-5.1-9c-0.3-1.3-0.3-2.6-0.3-3.9
				c0.2-3.3,1.4-6.5,3.3-9.2c1.8,0.8,3.5,1.8,5.2,2.8c14.7,8.4,27,20.7,35.1,36.3c4.5,8.7,9,29,21,30.1
				c14.7,1.3,25.5-16.5,32.5-26.7c4.4-6.4,10.9-8.6,17.1-8C1402.5,2135.4,1402.9,2138.9,1402,2142.6z"/>
			<path class="st1" d="M1402,2142.6c-0.4,1.6-1,3.3-1.9,5c-11.8,21.5-35.3,43.6-61.2,28.4c-10.6-6.2-16.2-17.4-22.6-27.4
				c0,0,0,0,0,0c-2.8-4.3-5.8-8.4-9-12.4c-4.6-5.7-9.6-11.1-14.8-16.2c-2.9-2.8-4.5-5.9-5.1-9c-0.3-1.3-0.3-2.6-0.3-3.9
				c0.7-13.4,18.4-25,31-12.7c4.2,4.1,8.1,8.3,11.9,12.7c6.9,7.8,13.1,16.2,18.7,25c1.5,2.4,6.4,12.5,8.5,12.4
				c5.1-0.2,9.9-11.8,11.7-15.1C1379.1,2110.6,1406.2,2124.4,1402,2142.6z"/>
			<path class="st0" d="M1402,2142.6c-0.4,1.6-1,3.3-1.9,5c-11.8,21.5-35.3,43.6-61.2,28.4c-10.6-6.2-16.2-17.4-22.6-27.4
				c0,0,0,0,0,0c-2.8-4.3-5.8-8.4-9-12.4c-4.6-5.7-9.6-11.1-14.8-16.2c-2.9-2.8-4.5-5.9-5.1-9c-0.3-1.3-0.3-2.6-0.3-3.9
				c0.2-3.3,1.4-6.5,3.3-9.2c1.8,0.8,3.5,1.8,5.2,2.8c14.7,8.4,30.3,20.4,38.4,36c4.5,8.7,5.6,25.8,17.6,26.9
				c14.7,1.3,19.5-13.9,26.6-24.1c4.4-6.4,16.9-7.8,23.1-7.2C1402.5,2135.4,1402.9,2138.9,1402,2142.6z"/>
			<path class="st1" d="M1415.5,2154.9c-13.1,14.6-34.4,33.9-68.8,57.7h0c-4.9-0.3-9.8-1.4-14.4-3.2c-5.6-2.2-10.8-5.5-15.4-10
				c-0.6-0.6-1.2-1.3-1.8-1.9c-1.1-1.3-2.2-2.6-3.2-4c-5.1-7-8.4-15-12-22.8c-1.7-3.6-3.5-7.1-5.6-10.4c-1-1.6-2.1-3.2-3.2-4.7
				c-9.9-12.9-25.5-21-41.6-22.1c-6.9-0.4-11.7-3.9-14.5-8.6c-1.1-1.8-1.9-3.7-2.3-5.7c-2.5-10.5,3.1-22.8,16.9-21.9
				c13.1,0.8,25.8,4.2,37.4,9.8c2.1,1,4.1,2.1,6.1,3.2c14.7,8.4,27,20.7,35.1,36.3c4.5,8.7,9,29,21,30.1
				c14.7,1.3,25.5-16.5,32.5-26.7c5.2-7.6,13.3-9.3,20.4-7.4C1408.4,2144.3,1413.8,2149,1415.5,2154.9z"/>
			<path class="st1" d="M1168.4,2206.7c-2.4-8.7-13.1-16.2-22.3-12.6c-30.7,11.9-61.4,23.8-92.1,35.6c-9.1,3.5-15.5,12.2-12.6,22.3
				c2.4,8.7,13.1,16.2,22.3,12.6c30.7-11.9,61.4-23.8,92.1-35.6C1164.9,2225.5,1171.2,2216.8,1168.4,2206.7z"/>
			<path class="st0" d="M1325.6,2226.7c-3.6,2.3-7.2,4.6-10.9,6.9h0c-3.5,2.2-7,4.4-10.6,6.6c-27.1-0.7-53.8,3.3-79.7,12.2
				c-30.7,10.6-55.4,29.7-81.9,47.9c-27.1,18.7-60.2,33.6-93.7,25.7c-11.2-2.7-21.2-7.9-29.4-15c-3.2-2.8-6.1-5.8-8.6-9.1
				c-1.5-1.9-2.8-3.8-4.1-5.8c0.5-0.5,1.1-1,1.7-1.4c0.4-0.3,0.8-0.6,1.3-0.8c0.9-0.6,1.9-1,2.9-1.4c8.3-3,16.6,0.8,21.9,7.8
				c13.6,18,40.8,16.2,59.5,9.3c24.3-9,44.4-27,65.1-41.9c22.6-16.2,47-28.1,74.1-34.4c26.8-6.2,54.4-7.9,81.8-9.5
				C1319.3,2223.7,1322.9,2224.8,1325.6,2226.7z"/>
			<path class="st1" d="M1325.6,2226.7c-3.6,2.3-7.2,4.6-10.9,6.9h0c-16.7,10.5-34.5,20.9-53.4,31.3c0,0,0,0,0,0
				c-12.3,1.8-24.6,4.4-36.5,8.4c-28.5,9.3-51,28.9-75,46c-1,0.7-1.9,1.4-2.9,2.1c0,0,0,0,0,0c-22.3,9.9-45.3,19.7-68.9,29h0
				c-2.3,0.3-4.7,0.4-7,0.5c-17.4,0.5-33.7-4.1-47.5-13.1c-7.7-5-14.5-11.4-20.3-19.1c-5.6-7.4-1.7-19,5.2-24
				c0.4-0.3,0.8-0.6,1.3-0.8c0.9-0.6,1.9-1,2.9-1.4c8.3-3,16.6,0.8,21.9,7.8c13.6,18,40.8,16.2,59.5,9.3c24.3-9,44.4-27,65.1-41.9
				c22.6-16.2,47-28.1,74.1-34.4c26.8-6.2,54.4-7.9,81.8-9.5C1319.3,2223.7,1322.9,2224.8,1325.6,2226.7z"/>
			<path class="st0" d="M1245.7,2227.9c-23.5,1.8-46.8,8.1-67.8,19c-20.8,10.8-38.5,26.2-58.7,37.8c-19.9,11.4-43.3,19.6-66.4,15.4
				c-22.2-4-40.7-22.6-39.2-46c0.3-4.4,1.8-7.9,4.1-10.6c6.3,1.9,10.5,7.3,12.1,13.8c0.3,1.2,0.5,2.3,0.7,3.5
				c3,25,36.7,26.1,54.4,20.7c26.9-8.3,48.3-28.9,71.5-44c31.3-20.5,67.2-33.5,104.2-38.5
				C1266.6,2209.2,1261.5,2226.7,1245.7,2227.9z"/>
			<path class="st0" d="M1325.6,2226.7c-3.6,2.3-7.2,4.6-10.9,6.9h0c-3.5,2.2-7,4.4-10.6,6.6c-27.1-0.7-53.3,6-79.2,15
				c-30.7,10.6-53.7,30-80.2,48.2c-27.1,18.7-61.7,33.1-95.2,25.2c-11.2-2.7-21.9-10.4-30.1-17.5c-3.2-2.8-6.1-5.8-8.6-9.1
				c-1.5-1.9-2.8-3.8-4.1-5.8c0.5-0.5,1.1-1,1.7-1.4c0.4-0.3,0.8-0.6,1.3-0.8c0.9-0.6,1.9-1,2.9-1.4c8.3-3,16.6,0.8,21.9,7.8
				c13.6,18,40.8,16.2,59.5,9.3c24.3-9,44.4-27,65.1-41.9c22.6-16.2,47-28.1,74.1-34.4c26.8-6.2,54.4-7.9,81.8-9.5
				C1319.3,2223.7,1322.9,2224.8,1325.6,2226.7z"/>
			<path class="st1" d="M1333.3,2221.7c-2.4,1.6-4.9,3.2-7.4,4.8c-0.1,0.1-0.2,0.1-0.3,0.2c-3.6,2.3-7.2,4.6-10.9,6.9h0
				c-31.6-2.5-62.7,1.2-92.7,11.6c-30.7,10.6-55.4,29.7-81.9,47.9c-27.1,18.7-60.2,33.6-93.7,25.7c-11.2-2.7-21.2-7.9-29.4-15
				c-3.2-2.8-6.1-5.8-8.6-9.1c-4.8-6-8.5-12.9-10.9-20.3c-0.8-2.4-1.5-4.9-2-7.4l0,0c-0.4-2-0.8-4.1-1-6.2
				c-1.2-9.8,9.2-18.1,18.1-18.1c1.3,0,2.6,0.1,3.7,0.4c7.2,1.5,11.9,7.2,13.7,14.2c0.3,1.2,0.5,2.3,0.7,3.5
				c3,25,36.7,26.1,54.4,20.7c26.9-8.3,48.3-28.9,71.5-44c32.7-21.4,70.4-34.6,109.1-39.1c10.3-1.2,20.6-1.7,30.9-1.7h0.1
				c2.9,0,5.9,0.1,8.9,0.2c0,0,0,0,0,0c3.3,0.1,6.5,0.3,9.8,0.6c0.4,0,0.8,0,1.3,0.1c8.2,0.7,13.5,5.7,15.9,11.8
				C1333.9,2213.4,1334.2,2217.7,1333.3,2221.7z"/>
			<path class="st1" d="M1020.1,2372.5c-0.4,0.1-0.8,0.3-1.2,0.4c-9.8,3.6-19.6,7-29.4,10.4c0,0,0,0,0,0c-4.2,1.5-8.4,2.9-12.6,4.3
				c0.3-1.9,0.9-3.8,1.9-5.8c15-29.9,9.9-65-9.7-91.3c0,0,0,0,0,0c-0.2-0.2-0.4-0.5-0.5-0.7c-0.4-0.5-0.7-1-1-1.6
				c-4.3-7.8,0.3-19.1,7.5-23.2c7.2-4.1,14.6-2.6,20.4,2l0,0c1.6,1.3,3.1,2.8,4.4,4.5c0.3,0.4,0.6,0.8,0.9,1.2
				c4.7,6.3,8.6,12.9,11.8,19.8c1.7,3.7,3.2,7.4,4.5,11.2c3.8,11,5.9,22.4,6.4,34C1023.9,2349.4,1022.8,2361.1,1020.1,2372.5z"/>
			<path class="st0" d="M1003.6,2378.5c-4.7,1.6-9.3,3.3-14,4.9c0,0,0,0,0,0c-4.2,1.5-8.4,2.9-12.6,4.3c0.3-1.9,0.9-3.8,1.9-5.8
				c15-29.9,9.9-65-9.7-91.3c0,0,0,0,0,0c-0.2-0.2-0.4-0.5-0.5-0.7c-0.4-0.5-0.7-1-1-1.6c-1.2-2.2-1.7-4.8-1.6-7.3
				c4.6,2.2,8.9,4.8,12.8,7.7c0.8,0.6,1.6,1.3,2.4,1.9c0,0,0,0,0,0C1007.2,2311.7,1014.9,2347.3,1003.6,2378.5z"/>
			<path class="st1" d="M989.6,2383.4C989.6,2383.4,989.5,2383.4,989.6,2383.4c-4.2,1.5-8.4,2.9-12.7,4.4
				c-9.2,3.1-18.3,6.2-27.4,9.1c-0.8-1.6-1.2-3.3-1.4-4.9v0c-0.7-5.4,1.3-10.9,4.9-15.6c18.4-23.7,5.1-54.2-20-65.2
				c-2.6-1.1-4.6-3-6-5.3c-0.7-1.2-1.3-2.4-1.7-3.7c-1.8-5.2-1.4-11.4,1.2-15.7c5.5-9.1,15.8-10.4,24.8-6.5
				c5.6,2.5,10.8,5.5,15.4,8.9c0.8,0.6,1.6,1.3,2.4,1.9c0,0,0,0,0,0C996.5,2312.8,1003.6,2351.1,989.6,2383.4z"/>
			<path class="st0" d="M976.6,2365.3c-3.9,13.7-13.7,24-25.6,31c-0.5,0.2-1,0.3-1.5,0.5c-0.8-1.6-1.2-3.3-1.4-4.9v0
				c-0.7-5.4,1.3-10.9,4.9-15.6c18.4-23.7,5.1-54.2-20-65.2c-2.6-1.1-4.6-3-6-5.3c-0.5-0.7-0.9-1.5-1.2-2.3
				c11.1,1.8,21.8,5.2,30.9,11.4C973,2325.9,982.2,2345.8,976.6,2365.3z"/>
			<path class="st1" d="M864.5,2413.8c-5.6,1.6-11,3.6-16.2,5.8c-8.3,3.5-16.1,7.7-23.6,12.6c0,0,0,0,0,0
				c-17.9,4.4-35.4,8.3-52.5,11.8c-0.4-1-0.8-2.1-1-3.1c-1.2-5.2,0-10.9,5-15.7c14.1-13.9,30.1-25.3,47.6-34c0,0,0.1,0,0.1-0.1
				c9.9-4.9,20.2-9,31-12.2c4.3-1.3,8.2-1,11.4,0.3h0C879.8,2384.7,882.5,2408.5,864.5,2413.8z"/>
			<path class="st0" d="M1104.3,2169.8c-51.8,12.6-98.7,38.3-147.7,58.5c-50.1,20.7-102.3,35.6-155.6,45.1
				c-8.2,1.4-14.7-2.1-18.6-7.5c-0.2-0.2-0.3-0.5-0.5-0.7c-1.1-1.7-2-3.5-2.6-5.4c1-0.4,2.1-0.8,3.1-1.1
				c31.6-11.3,65.3-16.9,97.7-25.3c47.8-12.3,92.3-33.5,136.7-54.5c30.3-14.3,61.8-28.6,94.2-40c1.3,1.2,2.3,2.5,3.2,4
				c0.4,0.6,0.7,1.2,1,1.8C1119.6,2153.9,1117.2,2166.6,1104.3,2169.8z"/>
			<path class="st1" d="M1106.7,2172.2c-51.8,12.6-98.7,38.3-147.7,58.5c-50.1,20.7-102.3,35.6-155.6,45.1
				c-8.2,1.4-14.7-2.1-18.6-7.5c-0.2-0.2-0.3-0.5-0.5-0.7c-6.4-9.6-4.8-24.2,9.5-26.7c53.3-9.4,105.6-24.4,155.7-45.1
				c49-20.3,95.8-45.9,147.7-58.5c8.9-2.1,15.8,1.9,19.5,8c0.4,0.6,0.7,1.2,1,1.8C1122,2156.4,1119.6,2169,1106.7,2172.2z"/>
			<path class="st0" d="M676.5,2397.6c-42,10.5-86.4,6.2-126.1-10.1c10.6,0.7,21.2,0.8,31.9,0.6c0,0,0,0,0,0c1.1,0,2.2,0,3.4-0.1
				c24.9-0.6,49.6-3.1,73-5.8c4.3-0.5,8.3,1.2,11.4,4h0c0.9,0.8,1.7,1.7,2.5,2.7C674.6,2391.5,676,2394.5,676.5,2397.6z"/>
			<path class="st1" d="M676.8,2400.3c0,8.8-5.8,14.7-13.3,17.1c-1.5,0.5-3.1,0.8-4.8,1c-26.4,3-54,5.3-81.6,5.4
				c-8.8,0-17.6-0.2-26.3-0.7c-4.3-0.2-8.6-0.5-12.9-0.9c-5.7-0.5-11.5-1.2-17.1-2c-47.3-6.6-92-23.4-127.7-58.7
				c-55.8-55.3-66.8-142.6-59.9-217.4c7.6-81.2,37.9-158.4,88-222.7c50.4-64.7,117.5-114.7,165.7-181.3
				c43.5-60.1,72.6-142.7,32.3-212.1c-11.7-20.2,19.6-38.4,31.3-18.3c44.7,77,21.2,170.8-26.4,240.3
				c-45.4,66.3-109,116.4-160.9,177.1c-50.9,59.4-84.5,132.8-93,210.9c-7.7,70.7-0.5,156.3,57.2,205.7c33.2,28.5,74.4,40,117.1,43.4
				c12.6,1,25.3,1.2,38,1c0,0,0,0,0,0c1.1,0,2.2,0,3.4-0.1c24.9-0.6,49.6-3.1,73-5.8c4.3-0.5,8.3,1.2,11.4,4h0
				c0.9,0.8,1.7,1.7,2.5,2.7C675.2,2392.2,676.8,2396.4,676.8,2400.3z"/>
			<path class="st0" d="M357.3,2144.1c-7,74.7,4.1,162.1,59.9,217.4c35.7,35.3,80.4,52.1,127.7,58.7c5.7,0.8,11.4,1.4,17.1,2
				c4.3,0.4,8.6,0.7,12.9,0.9c4.5,0.3,9.1,0.5,13.6,0.6c-3.8,0.1-7.7,0.1-11.5,0.1c-8.8,0-17.6-0.2-26.3-0.7
				c-4.3-0.2-8.6-0.5-12.9-0.9c-5.7-0.5-11.5-1.2-17.1-2c-47.3-6.6-92-23.4-127.7-58.7c-55.8-55.3-66.8-142.6-59.9-217.4
				c7.6-81.2,37.9-158.4,88-222.7c50.4-64.7,117.5-114.7,165.7-181.3c43.5-60.1,72.6-142.7,32.3-212.1c-10.8-18.7,15-35.6,28.2-22.3
				c-6.1,5-9.2,13.5-4.1,22.3c40.3,69.4,5.6,149.4-37.9,209.5c-48.2,66.6-109.6,119.2-160,183.9
				C395.2,1985.7,364.9,2063,357.3,2144.1z"/>
			<path class="st0" d="M666.9,2384c-18.6,1.9-37.8,3.5-57.1,4c-1.1,0-2.3,0.1-3.4,0.1c0,0,0,0,0,0c-6.7,0.1-13.4,0.1-20.1-0.1
				c24.7-0.7,49.2-3.1,72.4-5.7C661.6,2381.9,664.4,2382.6,666.9,2384z"/>
			<path class="st0" d="M700.9,2400.3c0,8.8-5.8,14.7-13.3,17.1c-1.5,0.5-3.1,0.8-4.8,1c-26.4,3-54,5.3-81.6,5.4
				c-4.2,0-8.4,0-12.7-0.1c23.8-0.6,47.4-2.6,70.1-5.2c1.6-0.2,3.2-0.5,4.8-1c7.6-2.4,13.3-8.3,13.3-17.1c0-3.9-1.6-8.1-4.2-11.4
				c-0.7-1-1.6-1.9-2.5-2.7h0c-1-0.9-2-1.6-3.2-2.2c5.4-0.6,10.7-1.1,15.9-1.7c4.3-0.5,8.3,1.2,11.4,4h0c0.9,0.8,1.7,1.7,2.5,2.7
				C699.3,2392.2,700.9,2396.4,700.9,2400.3z"/>
			<path class="st0" d="M1055,2252.6c-10.8,5.5-21.5,11.2-32.3,17c-4.8-7.2-7.3-15.8-6.7-25.1c1.5-23.2,37.7-23.3,36.2,0
				C1052,2248.2,1053,2250.9,1055,2252.6z"/>
			<path class="st0" d="M1265.2,2201.8c-39.9-1-79.8,3.5-118.6,13.8c-0.7,0.2-1.3,0.4-2,0.5c31.3-20,66.3-31.3,103.4-34.1
				C1261,2181.1,1266.7,2191.8,1265.2,2201.8z"/>
			<path class="st0" d="M1245.7,2227.9c-23.5,1.8-45.1,11.3-66.1,22.2c-20.8,10.8-39.7,25.7-60,37.3c-19.9,11.4-43.8,16.9-66.9,12.7
				c-22.2-4-40.7-22.6-39.2-46c0.3-4.4,1.8-7.9,4.1-10.6c6.3,1.9,10.5,7.3,12.1,13.8c0.3,1.2,0.5,2.3,0.7,3.5
				c3,25,36.7,26.1,54.4,20.7c26.9-8.3,48.3-28.9,71.5-44c31.3-20.5,67.2-33.5,104.2-38.5
				C1266.6,2209.2,1261.5,2226.7,1245.7,2227.9z"/>
			<path class="st1" d="M1248.1,2182.1c-39.1,2.9-75.9,15.4-108.4,37.4c-15.4,10.4-30.2,22.4-47.3,30c-9.1,4.1-41.4,13.8-40.2-5
				c1.5-23.3-34.7-23.2-36.2,0c-1.5,23.4,17,42,39.2,46c23.1,4.2,46.5-4.1,66.4-15.5c20.2-11.6,37.9-27.1,58.7-37.8
				c21-10.9,44.3-17.2,67.8-19C1271.2,2216.5,1271.3,2180.3,1248.1,2182.1z"/>
			<path class="st0" d="M710.1,2351.2c-3.9,1.9-7.8,3.6-11.7,5.1c-4.4,1.7-8.9,3.3-13.4,4.6c-23.4,7-47.7,8.7-71.3,5.2
				c-11.9-1.7-23.5-4.7-34.8-9c-22.5-8.5-43.5-22.2-61.1-40.9l0,0c-2-2.1-4-4.3-5.8-6.5c-5.9-7-5.3-14.7-1.4-20.5
				c4.4,5.3,9.2,10.4,14.4,15.1c43.6,39.8,108,53.7,164,35.6C699.7,2336.4,707.5,2342.8,710.1,2351.2z"/>
			<path class="st0" d="M676.5,2397.6c-42,10.5-86.4,6.2-126.1-10.1c10.6,0.7,21.2,0.8,31.9,0.6c0,0,0,0,0,0c1.1,0,2.2,0,3.4-0.1
				c24.9-0.6,49.6-3.1,73-5.8c4.3-0.5,8.3,1.2,11.4,4h0c0.9,0.8,1.7,1.7,2.5,2.7C674.6,2391.5,676,2394.5,676.5,2397.6z"/>
			<path class="st1" d="M613.2,2023.6c31.6-9.4,66.1-17.7,89.7-42.6c21.6-22.9,28.7-55.7,21.9-86c-7.4-33.2-33.6-60-67.2-66.8
				c-33.1-6.8-69.6,3.3-91.8,29.5c-15,17.7,10.5,43.4,25.6,25.6c16.4-19.3,43.9-26.5,67.7-17c24.2,9.7,35.6,37.3,31.3,62.1
				c-5.6,31.8-35.3,44.9-63.2,53.5c-32.4,10-64.4,19.3-93.9,36.5c-58.6,34.2-96.7,90.2-103.7,157.9c-6.4,62.2,16.9,127.1,65.1,167.8
				c52.9,44.8,127.7,62,194.1,40.4c22.1-7.2,12.6-42.1-9.6-34.9c-56,18.2-120.4,4.3-164-35.6c-45.4-41.5-60.4-106.9-43.8-165.5
				C490.5,2081.6,549.5,2042.5,613.2,2023.6z"/>
			<path class="st0" d="M714.6,1928.3c-5.6,31.9-48.8,56.3-76.7,64.9c-32.4,9.9-50.4,12.2-80.4,25.1c-62.3,26.8-96.7,90.3-103.7,158
				c-6.4,62.2,16.9,127.1,65.1,167.8c34.4,29.2,78.2,46.6,122.8,49.3c-52.8,3.2-106.3-14.9-146.9-49.3
				c-48.1-40.7-71.5-105.6-65.1-167.8c7-67.7,45.1-123.8,103.7-158c29.5-17.2,61.5-26.5,93.9-36.5c27.9-8.6,57.6-21.7,63.2-53.5
				c4.4-24.8-7-52.4-31.3-62.1c-3.2-1.3-6.4-2.2-9.7-2.9c11.1-2.3,22.9-1.5,33.8,2.9C707.5,1875.9,719,1903.5,714.6,1928.3z"/>
			<path class="st1" d="M713,2384.4c-23.2,7.5-47.4,10.3-71.3,8.9c15.9-1,31.8-3.9,47.2-8.9c15.8-5.1,15.5-24.4,5.9-32.4
				c2.9-0.7,5.8-1.6,8.6-2.5C725.6,2342.3,735.1,2377.3,713,2384.4z"/>
			<path class="st0" d="M1313.2,2163.1c-0.4,0.6-0.8,1.2-1.3,1.8c-2.8,3.4-6.9,5.7-11.9,5.8c-1.8,0-3.7-0.3-5.8-0.9
				c-51.9-15.6-105.8-8.1-156.5,8.2c-45.6,14.6-88.4,36.5-131.7,56.6c-43.9,20.3-88.2,37.7-135.4,48.5
				c-42.4,9.6-89.3,17.3-123.3,46.8c-14.9,12.9-23.5,27.9-30.5,46.1c-6.9,17.7-15,34.8-32.4,44.2c-4.4,2.4-8.8,2.8-12.6,1.9
				c-0.6-0.1-1.2-0.3-1.8-0.6c-4.9-7.8-4.5-18.6,6.1-24.1c18-9.2,25.7-28.6,34.8-45.6c11.1-21,24.9-38.5,44.5-52.1
				c38.5-26.5,86.1-30,130.8-37.4c23.5-3.9,46.4-9.7,68.3-19.4c22.1-9.8,43.2-21.8,64.5-33.3c85.6-46.3,179.9-69.3,277.4-58.4
				C1303.8,2152.1,1310.6,2156.2,1313.2,2163.1z"/>
			<path class="st0" d="M1104.3,2169.8c-51.8,12.6-98.7,38.3-147.7,58.5c-50.1,20.7-102.3,35.6-155.6,45.1
				c-8.2,1.4-14.7-2.1-18.6-7.5c-0.2-0.2-0.3-0.5-0.5-0.7c-1.1-1.7-2-3.5-2.6-5.4c1-0.4,2.1-0.8,3.1-1.1
				c31.6-11.3,65.3-16.9,97.7-25.3c47.8-12.3,92.3-33.5,136.7-54.5c30.3-14.3,61.8-28.6,94.2-40c1.3,1.2,2.3,2.5,3.2,4
				c0.4,0.6,0.7,1.2,1,1.8C1119.6,2153.9,1117.2,2166.6,1104.3,2169.8z"/>
			<path class="st1" d="M1311.9,2164.9c-2.8,3.4-6.9,5.7-11.9,5.8c-1.8,0-3.7-0.3-5.8-0.9c-51.9-15.6-105.8-8.1-156.5,8.2
				c-45.6,14.6-88.4,36.5-131.7,56.6c-43.9,20.3-88.2,37.7-135.4,48.5c-42.4,9.6-89.3,17.3-123.3,46.8
				c-14.9,12.9-23.5,27.9-30.5,46.1c-6.9,17.7-15,34.8-32.4,44.2c-4.4,2.4-8.8,2.8-12.6,1.9c-3.2-0.7-6-2.4-8.3-4.6
				c-7.3-7-9.4-19.5-0.1-26.7c0.8-0.7,1.8-1.3,2.8-1.8c1.4-0.8,2.8-1.7,4-2.7h0c7.1-5.9,11.3-15.5,14.9-25.3c1.5-4,2.8-8,4.2-11.8
				c1.6-4.3,3.3-8.4,5.3-11.9c6.6-11.7,15.3-22,25.2-31.1c7.7-7.1,16.2-13.4,25-18.9c0.1-0.1,0.3-0.2,0.5-0.3c0,0,0.1,0,0.1,0
				c9.8-6.1,20-11,30.5-15.2l0,0c3-1.2,6-2.3,9-3.4c31.6-11.3,65.3-16.9,97.7-25.3c47.8-12.3,92.3-33.5,136.7-54.5
				c31.6-14.9,64.6-29.9,98.4-41.5c38.3-13.2,77.7-22.2,117.5-22.1c22.8,0,45.8,3.1,68.8,10c1.2,0.4,2.3,0.8,3.4,1.4
				c5.3,2.7,8.2,7.4,9,12.4C1317.2,2154.4,1315.5,2160.6,1311.9,2164.9z"/>
			<path class="st0" d="M1313.2,2163.1c-0.4,0.6-0.8,1.2-1.3,1.8c-2.8,3.4-6.9,5.7-11.9,5.8c-1.8,0-3.7-0.3-5.8-0.9
				c-51.9-15.6-105.8-8.1-156.5,8.2c-45.6,14.6-88.4,36.5-131.7,56.6c-43.9,20.3-88.2,37.7-135.4,48.5
				c-42.4,9.6-89.3,17.3-123.3,46.8c-14.9,12.9-23.5,27.9-30.5,46.1c-6.9,17.7-15,34.8-32.4,44.2c-4.4,2.4-8.8,2.8-12.6,1.9
				c-0.6-0.1-1.2-0.3-1.8-0.6c-4.9-7.8-4.5-18.6,6.1-24.1c18-9.2,25.7-28.6,34.8-45.6c11.1-21,24.9-38.5,44.5-52.1
				c38.5-26.5,86.1-30,130.8-37.4c23.5-3.9,46.4-9.7,68.3-19.4c22.1-9.8,43.2-21.8,64.5-33.3c85.6-46.3,179.9-69.3,277.4-58.4
				C1303.8,2152.1,1310.6,2156.2,1313.2,2163.1z"/>
			<path class="st0" d="M1052.2,2244.5c-0.2,3.8,0.8,6.4,2.8,8.1c-10.8,5.5-21.5,11.2-32.3,17c-4.8-7.2-7.3-15.8-6.7-25.1
				C1017.5,2221.3,1053.7,2221.2,1052.2,2244.5z"/>
			<g>
				<path class="st0" d="M1265.2,2201.8c-39.9-1-79.8,3.5-118.6,13.8c-0.7,0.2-1.3,0.4-2,0.5c31.3-20,66.3-31.3,103.4-34.1
					C1261,2181.1,1266.7,2191.8,1265.2,2201.8z"/>
			</g>
			<path class="st1" d="M1301,2160.9c-97.5-10.9-191.7,12.1-277.4,58.4c-21.3,11.5-42.3,23.6-64.5,33.3
				c-21.8,9.6-44.8,15.5-68.3,19.4c-44.7,7.4-92.3,10.9-130.8,37.4c-19.7,13.6-33.4,31.1-44.5,52.1c-9,17-16.8,36.4-34.7,45.6
				c-20.8,10.6-2.5,41.9,18.3,31.3c35.6-18.2,40.4-59.2,65.9-86.1c29.9-31.5,77.4-36.6,118-42.6c23.9-3.5,47.6-7.6,70.5-15.9
				c21.5-7.8,42-18,62.1-28.8c41.8-22.4,82.5-44.2,128.6-56.5c51.2-13.7,104.2-17.1,156.8-11.2c9.7,1.1,18.1-9.1,18.1-18.1
				C1319.1,2168.4,1310.8,2162,1301,2160.9z"/>
			<path class="st0" d="M874,2385.8c-14,1.8-27.7,5.6-40.7,13.1c-2.4,1.4-4.7,2.8-7,4.3c0,0-0.1,0-0.1,0.1
				c-16,10.5-29.6,24.2-42.5,38.4c-3.8,0.8-7.7,1.6-11.5,2.4c-0.4-1-0.8-2.1-1-3.1c-1.2-5.2,0-10.9,5-15.7
				c14.1-13.9,30.1-25.3,47.6-34c0,0,0.1,0,0.1-0.1c9.9-4.9,20.2-9,31-12.2c4.3-1.3,8.2-1,11.4,0.3h0
				C869.6,2380.5,872.2,2382.9,874,2385.8z"/>
			<path class="st1" d="M918.9,2373.6c-7.4-0.6-14.8-1-22.1-1.1h-0.1c-22.8-0.3-45.2,2.5-65.7,14.3c-2.4,1.4-4.7,2.8-7,4.3
				c0,0-0.1,0-0.1,0.1c-20.2,13.3-36.7,31.6-52.6,49.8c-1.2,1.4-2.4,2.7-3.5,4c-6.8,1.4-13.5,2.7-20.2,3.9c-1.2,0.2-2.3,0.4-3.5,0.6
				c-3.6-2.6-6.4-6.6-7.7-11c-1.6-5.5-0.8-11.7,3.9-17.1c0.4-0.5,0.8-0.9,1.3-1.4c21.9-25.1,44.8-50.5,74.6-66.5
				c32-17.2,67.2-18.9,102.7-16.2C942,2339.1,942.1,2375.3,918.9,2373.6z"/>
			<path class="st0" d="M924.1,2302.2c-13.5,3.1-27.3,5.3-41.1,7.4c-40.6,6-88,11.2-118,42.6c-25.6,26.9-30.3,67.9-65.9,86.1
				c-2.3,1.2-4.5,1.8-6.7,2.1c-1.4-1.2-2.6-2.7-3.6-4.5c-4.4-7.7-2.6-20.9,6.5-24.8c17.7-7.6,24.4-23.8,36.2-38.5
				c11.7-14.6,24.4-30.7,39.3-42.2c30.6-23.9,72.9-33.2,111.7-33.6C896.1,2296.7,910.8,2297.7,924.1,2302.2z"/>
			<path class="st0" d="M928.5,2377.6c4.1-2.3,7.3-5.4,8.4-9.8c6.1-24.7-59.6-17.1-71.1-14.5c-29.8,6.8-56.2,22.5-76.4,45.6
				c-15.3,17.5-28.5,37.6-47.3,51.1c-1.5-2-2.6-4.2-3.3-6.6c-1.6-5.5-0.8-11.7,3.9-17.1c0.4-0.5,0.8-0.9,1.3-1.4
				c21.9-25.1,44.8-50.5,74.6-66.5c32-17.2,67.2-18.9,102.7-16.2C941.7,2343.7,944.2,2372.1,928.5,2377.6z"/>
			<path class="st0" d="M976.6,2365.3c-3.9,13.7-13.7,24-25.6,31c-0.5,0.2-1,0.3-1.5,0.5c-0.8-1.6-1.2-3.3-1.4-4.9v0
				c-0.7-5.4,1.3-10.9,4.9-15.6c18.4-23.7,5.1-54.2-20-65.2c-2.6-1.1-4.6-3-6-5.3c-0.5-0.7-0.9-1.5-1.2-2.3
				c11.1,1.8,21.8,5.2,30.9,11.4C973,2325.9,982.2,2345.8,976.6,2365.3z"/>
			<path class="st1" d="M947,2314.8c-16.3-11.1-37.9-13.3-57.2-13.1c-38.9,0.4-77.1,14-107.7,37.8c-14.8,11.5-26.5,25.5-38.1,40.1
				c-11.8,14.8-23.6,28.9-41.3,36.5c-9.1,3.9-10.9,17-6.5,24.8c5.3,9.4,15.8,10.3,24.8,6.5c28.2-12.1,44.2-38.3,63.6-60.5
				c20.1-23,46.6-38.8,76.4-45.6c11.5-2.6,77.2-10.3,71.1,14.5c-3.2,13.1-24.9,15.2-35.3,16.8c-17.1,2.8-33.9,5.4-48.3,15.8
				c-18.8,13.4-0.7,44.9,18.3,31.3c17.2-12.3,39.2-10,58.7-16.2c18.5-5.9,35.9-18.6,41.5-38C972.5,2345.8,963.4,2325.9,947,2314.8z"
				/>
		</g>
	</g>
	<g>
		<path class="st5" d="M204.6,1882c-26.5,4-32.8,1.4-34.2-5.6c-2.2-11.4,8.7-34.6-34.4-59.9c-3.5-2.1-6.7-4.3-9.6-6.8
			c-54-45.3-0.5-149.9,29.4-196.2c31.5-48.9,57.8-3.6,56.5-76.3c-0.3-13.7,0.4-24.2,2-32.3c2.1-10.7,5.9-17.4,11.9-22.1
			c13.4-10.7,37.4-11.4,75.9-26.9c68.4-27.7,23.2,127.2,23.2,127.2l-65.7,217.1C259.4,1800.1,274.5,1871.4,204.6,1882z"/>
		<path class="st8" d="M325.2,1583.1l-65.7,217c0,0,10.2,48.4-25.2,71.3c18.2-16.9-1.9-101.1,44.2-191.3
			c49.2-96.2,38.3-227.6,38.3-227.6C363.1,1452.9,325.2,1583.1,325.2,1583.1z"/>
		<path class="st0" d="M206.2,1608.9c-57.7,22.4-95.2,176.9-55.9,187c39.2,10.1,40.6,87.8,40.6,87.8c-15.1,1.1-19.4-1.6-20.5-7.2
			c-2.2-11.4,8.7-34.6-34.4-59.9c-3.5-2.1-6.7-4.3-9.6-6.7c-54-45.3-0.5-149.9,29.4-196.2c31.5-48.9,57.8-3.6,56.5-76.4
			c-0.3-13.7,0.4-24.2,2-32.3c2.1-10.7,5.9-17.4,11.9-22.1c3.2-2.6,7.1-4.6,11.6-6.3C237.7,1476.5,263.9,1586.4,206.2,1608.9z"/>
		<path class="st6" d="M204.6,1882c-26.5,4-32.8,1.4-34.2-5.6c-2.2-11.4,8.7-34.6-34.4-59.9c-3.5-2.1-6.7-4.3-9.6-6.8
			c-54-45.3-0.5-149.9,29.4-196.2c31.5-48.9,57.8-3.6,56.5-76.3c-0.3-13.7,0.4-24.2,2-32.3c2.1-10.7,5.9-17.4,11.9-22.1
			c13.4-10.7,37.4-11.4,75.9-26.9c68.4-27.7,23.2,127.2,23.2,127.2l-65.7,217.1C259.4,1800.1,274.5,1871.4,204.6,1882z"/>
		<path class="st5" d="M155.7,1613.5c0,0,6.2-22.3,26.5-53.1c20.3-30.7-3.3-67.6,43.8-77.6c-5.9,4.7-9.8,11.3-11.9,22.1
			c-1.6,8.1-2.2,18.6-2,32.3C213.5,1610,187.2,1564.6,155.7,1613.5z"/>
		<path class="st5" d="M170.4,1876.4c-33.1-7.1-23.6-32.3-36.2-38.2c-10.7-5-8.8-22.4-7.8-28.5c2.9,2.4,6.1,4.7,9.6,6.8
			C179.1,1841.8,168.1,1865,170.4,1876.4z"/>
		<path class="st9" d="M155.7,1613.5c0,0,6.2-22.3,26.5-53.1c20.3-30.7-3.3-67.6,43.8-77.6c-5.9,4.7-9.8,11.3-11.9,22.1
			c-1.6,8.1-2.2,18.6-2,32.3C213.5,1610,187.2,1564.6,155.7,1613.5z"/>
		<path class="st9" d="M170.4,1876.4c-33.1-7.1-23.6-32.3-36.2-38.2c-10.7-5-8.8-22.4-7.8-28.5c2.9,2.4,6.1,4.7,9.6,6.8
			C179.1,1841.8,168.1,1865,170.4,1876.4z"/>
		<path class="st1" d="M259.4,1800.1"/>
		<path class="st6" d="M155.7,1613.5c0,0,6.2-22.3,26.5-53.1c20.3-30.7-3.3-67.6,43.8-77.6c-5.9,4.7-9.8,11.3-11.9,22.1
			c-1.6,8.1-2.2,18.6-2,32.3C213.5,1610,187.2,1564.6,155.7,1613.5z"/>
		<path class="st6" d="M170.4,1876.4c-33.1-7.1-23.6-32.3-36.2-38.2c-10.7-5-8.8-22.4-7.8-28.5c2.9,2.4,6.1,4.7,9.6,6.8
			C179.1,1841.8,168.1,1865,170.4,1876.4z"/>
		<path class="st1" d="M259.4,1800.1"/>
		
			<ellipse transform="matrix(0.2898 -0.9571 0.9571 0.2898 -1418.7554 1460.6252)" class="st10" cx="274.8" cy="1686.3" rx="113.4" ry="51"/>
		<path class="st8" d="M323.7,1701.1c-18.2,59.9-54.7,101.9-81.7,93.8c-3-0.9-5.8-2.4-8.3-4.5c26.8,6.4,62.5-35.1,80.4-94.1
			c16.1-53.2,12.3-102.7-7.6-118.8c0.4,0.1,0.9,0.2,1.3,0.3C334.7,1585.9,341.8,1641.2,323.7,1701.1z"/>
		<path class="st0" d="M250.1,1676.3c-15.9,52.6-12.4,101.5,7,118.3c-5.2,1.6-10.3,1.7-15.1,0.2c-27-8.2-34.1-63.4-16-123.3
			c18.2-59.9,54.7-101.9,81.7-93.7c3.3,1,6.3,2.7,9,5.1C292.4,1589.9,265.1,1627.1,250.1,1676.3z"/>
		
			<ellipse transform="matrix(0.2898 -0.9571 0.9571 0.2898 -1418.7554 1460.6252)" class="st6" cx="274.8" cy="1686.3" rx="113.4" ry="51"/>
		
			<ellipse transform="matrix(0.3873 -0.9219 0.9219 0.3873 -1424.4729 1323.651)" class="st11" cx="283.7" cy="1733.6" rx="12.6" ry="5.8"/>
		<path class="st8" d="M234.2,1871.5C234.2,1871.5,234.2,1871.5,234.2,1871.5c-1.2,1.1-2.5,1.9-4,2.4c-0.1,0-0.1,0-0.2,0.1"/>
	</g>
	<g>
		<path class="st5" d="M253.9,688.7l-17.4-11.1c8.5-40.6-7.6-80.7-38.2-104.7c39.6,19.9,63.2,63.3,56.9,108.6
			C254.9,683.9,254.4,686.3,253.9,688.7z"/>
		<path class="st0" d="M253.9,688.7l-17.4-11.1c8.5-40.6-7.6-80.7-38.2-104.7c39.6,19.9,63.2,63.3,56.9,108.6
			C254.9,683.9,254.4,686.3,253.9,688.7z"/>
		<path class="st5" d="M213.6,548.8c-10.9-5.8-22.7-10.1-35.3-12.8c-69.9-14.7-138.5,28.1-156.7,96.4c-0.6,2.3-1.2,4.7-1.7,7
			L2.5,628.5C17.7,556.2,88.6,509.8,160.9,525C180.6,529.2,198.5,537.5,213.6,548.8z"/>
		<path class="st9" d="M213.6,548.8c-10.9-5.8-22.7-10.1-35.3-12.8c-69.9-14.7-138.5,28.1-156.7,96.4c-0.6,2.3-1.2,4.7-1.7,7
			L2.5,628.5C17.7,556.2,88.6,509.8,160.9,525C180.6,529.2,198.5,537.5,213.6,548.8z"/>
		<path class="st5" d="M281.8,694.5l-27.8-5.8c0.5-2.4,0.9-4.8,1.2-7.1c6.4-45.3-17.3-88.7-56.9-108.6c-8-4-16.6-7.1-25.8-9
			c-56.9-12-112.8,24.5-124.7,81.5l-27.8-5.8c0.5-2.4,1.1-4.7,1.7-7c18.2-68.3,86.8-111.1,156.7-96.4c12.6,2.6,24.5,7,35.3,12.8
			C264.9,576.1,294.3,634.8,281.8,694.5z"/>
		<path class="st0" d="M30.2,641.7l-10.3-2.2c0.5-2.4,1.1-4.7,1.7-7c18.2-68.3,86.8-111.1,156.7-96.4
			C45,543.1,30.2,641.7,30.2,641.7z"/>
		<path class="st8" d="M268.6,691.7l-14.7-3.1c0.5-2.4,0.9-4.8,1.2-7.1c6.4-45.3-17.3-88.7-56.9-108.6
			C198.3,572.9,272.4,576.2,268.6,691.7z"/>
		<path class="st6" d="M281.8,694.5l-27.8-5.8c0.5-2.4,0.9-4.8,1.2-7.1c6.4-45.3-17.3-88.7-56.9-108.6c-8-4-16.6-7.1-25.8-9
			c-56.9-12-112.8,24.5-124.7,81.5l-27.8-5.8c0.5-2.4,1.1-4.7,1.7-7c18.2-68.3,86.8-111.1,156.7-96.4c12.6,2.6,24.5,7,35.3,12.8
			C264.9,576.1,294.3,634.8,281.8,694.5z"/>
		<path class="st6" d="M213.6,548.8c-10.9-5.8-22.7-10.1-35.3-12.8c-69.9-14.7-138.5,28.1-156.7,96.4c-0.6,2.3-1.2,4.7-1.7,7
			L2.5,628.5C17.7,556.2,88.6,509.8,160.9,525C180.6,529.2,198.5,537.5,213.6,548.8z"/>
		<path class="st6" d="M253.9,688.7l-17.4-11.1c8.5-40.6-7.6-80.7-38.2-104.7c39.6,19.9,63.2,63.3,56.9,108.6
			C254.9,683.9,254.4,686.3,253.9,688.7z"/>
	</g>
	<g>
		<path class="st5" d="M118.1,731.5l7.3,14.8c-22.7,24.1-28.4,58.1-17.5,87.2c-18.7-30-16.7-69.4,6.4-97.6
			C115.5,734.4,116.8,732.9,118.1,731.5z"/>
		<path class="st0" d="M118.1,731.5l7.3,14.8c-22.7,24.1-28.4,58.1-17.5,87.2c-18.7-30-16.7-69.4,6.4-97.6
			C115.5,734.4,116.8,732.9,118.1,731.5z"/>
		<path class="st5" d="M87.4,843.5c5,8.4,11.3,16.3,18.7,23.4c41.5,39.1,106.1,38.4,146.8-0.5c1.4-1.3,2.7-2.7,4.1-4.1l7.3,14.8
			c-40.4,43-108,45-150.9,4.6C101.7,870.6,93,857.5,87.4,843.5z"/>
		<path class="st9" d="M87.4,843.5c5,8.4,11.3,16.3,18.7,23.4c41.5,39.1,106.1,38.4,146.8-0.5c1.4-1.3,2.7-2.7,4.1-4.1l7.3,14.8
			c-40.4,43-108,45-150.9,4.6C101.7,870.6,93,857.5,87.4,843.5z"/>
		<path class="st5" d="M101.6,716l16.5,15.5c-1.3,1.4-2.6,2.9-3.8,4.4c-23.2,28.2-25.1,67.6-6.4,97.6c3.8,6.1,8.4,11.8,13.8,16.9
			c33.8,31.8,87,30.2,118.9-3.6l16.5,15.5c-1.3,1.4-2.7,2.8-4.1,4.1c-40.8,38.9-105.3,39.6-146.8,0.5c-7.5-7-13.7-14.9-18.7-23.4
			C63.8,803.6,68.2,751.4,101.6,716z"/>
		<path class="st0" d="M251,856.5l6.1,5.8c-1.3,1.4-2.7,2.8-4.1,4.1c-40.8,38.9-105.3,39.6-146.8,0.5C200,917.5,251,856.5,251,856.5
			z"/>
		<path class="st8" d="M109.4,723.3l8.7,8.2c-1.3,1.4-2.6,2.9-3.8,4.4c-23.2,28.2-25.1,67.6-6.4,97.6
			C107.9,833.5,58.8,800.4,109.4,723.3z"/>
		<path class="st6" d="M101.6,716l16.5,15.5c-1.3,1.4-2.6,2.9-3.8,4.4c-23.2,28.2-25.1,67.6-6.4,97.6c3.8,6.1,8.4,11.8,13.8,16.9
			c33.8,31.8,87,30.2,118.9-3.6l16.5,15.5c-1.3,1.4-2.7,2.8-4.1,4.1c-40.8,38.9-105.3,39.6-146.8,0.5c-7.5-7-13.7-14.9-18.7-23.4
			C63.8,803.6,68.2,751.4,101.6,716z"/>
		<path class="st6" d="M87.4,843.5c5,8.4,11.3,16.3,18.7,23.4c41.5,39.1,106.1,38.4,146.8-0.5c1.4-1.3,2.7-2.7,4.1-4.1l7.3,14.8
			c-40.4,43-108,45-150.9,4.6C101.7,870.6,93,857.5,87.4,843.5z"/>
		<path class="st6" d="M118.1,731.5l7.3,14.8c-22.7,24.1-28.4,58.1-17.5,87.2c-18.7-30-16.7-69.4,6.4-97.6
			C115.5,734.4,116.8,732.9,118.1,731.5z"/>
	</g>
	<g>
		<polygon class="st12" points="431.2,17.1 411,14.5 401.8,2.5 421.9,5.1 		"/>
		<polygon class="st8" points="431.2,17.1 411,14.5 401.8,2.5 421.9,5.1 		"/>
		<polygon class="st12" points="411,14.5 380.7,222.1 379.2,232.7 369.9,220.7 401.8,2.5 		"/>
		<polygon class="st9" points="411,14.5 380.7,222.1 379.2,232.7 369.9,220.7 401.8,2.5 		"/>
		<polygon class="st12" points="405.7,236.2 379.2,232.7 380.7,222.1 411,14.5 431.2,17.1 		"/>
		<polygon class="st8" points="405.7,236.2 401.6,235.7 422.2,16 431.2,17.1 		"/>
		<polygon class="st0" points="390.2,234.2 379.2,232.7 380.7,222.1 411,14.5 415.8,15.1 		"/>
		<polygon class="st6" points="431.2,17.1 411,14.5 401.8,2.5 421.9,5.1 		"/>
		<polygon class="st6" points="405.7,236.2 379.2,232.7 380.7,222.1 411,14.5 431.2,17.1 		"/>
		<polygon class="st6" points="411,14.5 380.7,222.1 379.2,232.7 369.9,220.7 401.8,2.5 		"/>
	</g>
	<g>
		<polygon class="st12" points="241.6,187.4 221.6,191.1 209.1,182.6 229.1,178.8 		"/>
		<polygon class="st8" points="241.6,187.4 221.6,191.1 209.1,182.6 229.1,178.8 		"/>
		<polygon class="st12" points="221.6,191.1 257.3,397.9 259.1,408.5 246.6,399.9 209.1,182.6 		"/>
		<polygon class="st9" points="221.6,191.1 257.3,397.9 259.1,408.5 246.6,399.9 209.1,182.6 		"/>
		<polygon class="st12" points="285.4,403.5 259.1,408.5 257.3,397.9 221.6,191.1 241.6,187.4 		"/>
		<polygon class="st8" points="285.4,403.5 281.4,404.3 232.7,189 241.6,187.4 		"/>
		<polygon class="st0" points="270,406.4 259.1,408.5 257.3,397.9 221.6,191.1 226.3,190.3 		"/>
		<polygon class="st6" points="241.6,187.4 221.6,191.1 209.1,182.6 229.1,178.8 		"/>
		<polygon class="st6" points="285.4,403.5 259.1,408.5 257.3,397.9 221.6,191.1 241.6,187.4 		"/>
		<polygon class="st6" points="221.6,191.1 257.3,397.9 259.1,408.5 246.6,399.9 209.1,182.6 		"/>
	</g>
	<g>
		<ellipse class="st13" cx="105.5" cy="1263.9" rx="50.5" ry="29.2"/>
		<path class="st8" d="M156.1,1263.9c0,16.1-22.6,29.2-50.6,29.2c-2.1,0-4.1-0.1-6-0.2c25.1-1.7,44.5-14,44.5-28.9
			c0-14.9-19.5-27.2-44.5-28.9c2-0.1,4-0.2,6-0.2C133.5,1234.7,156.1,1247.8,156.1,1263.9z"/>
		<path class="st0" d="M115.2,1292.5c-3.1,0.4-6.3,0.6-9.7,0.6c-27.9,0-50.6-13.1-50.6-29.2c0-16.1,22.6-29.2,50.6-29.2
			c3.3,0,6.5,0.2,9.7,0.6c-23.3,2.6-40.9,14.4-40.9,28.6C74.3,1278.1,91.9,1289.9,115.2,1292.5z"/>
		<ellipse class="st6" cx="105.5" cy="1263.9" rx="50.5" ry="29.2"/>
		
			<ellipse transform="matrix(0.9699 -0.2434 0.2434 0.9699 -300.2315 97.7882)" class="st13" cx="245.6" cy="1263.9" rx="20.1" ry="34.9"/>
		<path class="st8" d="M254.1,1297.7c-2.6,0.7-5.2,0.4-7.9-0.6c9.5-4.1,13.7-20.5,9.2-38.1c-3.6-14.2-11.7-25.1-20.1-28.3
			c0.6-0.2,1.2-0.5,1.8-0.6c10.8-2.7,23.3,10.2,28,28.9C269.8,1277.7,264.9,1295,254.1,1297.7z"/>
		<path class="st0" d="M259.2,1295.1c-1.5,1.3-3.2,2.2-5,2.7c-10.8,2.7-23.3-10.2-28-28.9c-4.7-18.7,0.2-36,11-38.7
			c3.9-1,8,0.1,11.9,2.7c-7.1,6.1-9.8,20.6-6,36C246,1280.8,252.2,1290.4,259.2,1295.1z"/>
		
			<ellipse transform="matrix(0.9699 -0.2434 0.2434 0.9699 -300.2315 97.7882)" class="st6" cx="245.6" cy="1263.9" rx="20.1" ry="34.9"/>
		
			<ellipse transform="matrix(0.1816 -0.9834 0.9834 0.1816 -963.7256 1057.5583)" class="st13" cx="153.5" cy="1107.8" rx="43.1" ry="24.9"/>
		<path class="st8" d="M178,1112.3c-4.3,23.4-18.8,40.4-32.3,37.9c-0.7-0.1-1.4-0.3-2.1-0.6c11-3.5,21.2-18.3,24.7-37.3
			c4.1-22.2-2.3-42.2-14.5-46.4c2.5-0.8,5-1,7.5-0.6C174.9,1067.8,182.3,1088.9,178,1112.3z"/>
		<path class="st0" d="M148.3,1103.3c-3.5,19.2,0.8,36.8,10,43.9c-4.1,2.7-8.4,3.8-12.7,3c-13.5-2.5-21-23.5-16.6-46.9
			c4.3-23.4,18.8-40.4,32.3-37.9c2.4,0.4,4.6,1.5,6.6,3C159,1074.2,151.3,1087.2,148.3,1103.3z"/>
		
			<ellipse transform="matrix(0.1816 -0.9834 0.9834 0.1816 -963.7256 1057.5583)" class="st6" cx="153.5" cy="1107.8" rx="43.1" ry="24.9"/>
		<ellipse class="st11" cx="121.4" cy="1276.4" rx="4.6" ry="2.3"/>
		
			<ellipse transform="matrix(0.331 -0.9436 0.9436 0.331 -963.1569 904.1729)" class="st11" cx="156.1" cy="1131.4" rx="2.3" ry="1.2"/>
		
			<ellipse transform="matrix(0.2705 -0.9627 0.9627 0.2705 -1047.8789 1176.9906)" class="st11" cx="252.7" cy="1279.9" rx="2.5" ry="1.2"/>
	</g>
	<g>
		<path class="st14" d="M941.9,2108.9c-2.3-5.7-7.9-9.7-14.4-9.7c-1.6,0-3.2,0.3-4.7,0.7c-2.1-6.1-7.8-10.6-14.7-10.6
			c-6.6,0-12.2,4.1-14.4,9.9c-0.3,0-0.7,0-1,0c-8.5,0-15.5,6.9-15.5,15.5c0,5.9,3.3,11,8.2,13.7c1.2,7.4,7.6,13.1,15.3,13.1
			c4,0,7.7-1.5,10.5-4.1c2.8,2.5,6.4,4.1,10.5,4.1c3.7,0,7-1.3,9.7-3.4c1.8,0.7,3.7,1.1,5.8,1.1c8.5,0,15.5-6.9,15.5-15.5
			C952.5,2116.8,948.1,2110.9,941.9,2108.9z"/>
		<path class="st15" d="M952.5,2123.6c0,8.5-6.9,15.5-15.5,15.5c-2.1,0-4-0.4-5.8-1.1c-2.7,2.1-6,3.4-9.7,3.4
			c-3.1,0-5.9-0.9-8.4-2.4c0.2,0,0.4,0,0.6,0c3.6,0,7.2,2,9.9-0.1c1.8,0.7,3.5-2.2,5.6-2.2c8.5,0,15.5-6.9,15.5-15.5
			c0-6.9-2-14.1-8.2-16.1c-1.2-3-5.8-4.1-8.5-5.9c6.3,0.2,11.6,4.2,13.8,9.7C948.1,2110.9,952.5,2116.8,952.5,2123.6z"/>
		<path class="st0" d="M922.1,2141.3c-0.1,0-0.3,0-0.5,0c-4,0-7.7-1.5-10.5-4.1c-2.8,2.5-6.4,4.1-10.5,4.1
			c-7.7,0-14.1-5.7-15.3-13.1c-4.9-2.6-8.2-7.7-8.2-13.6c0-8.5,6.9-15.5,15.5-15.5c0.4,0,0.7,0,1,0c2.2-5.8,7.9-9.9,14.4-9.9
			c4.2,0,8.1,1.7,10.9,4.5c-1.5,1.5-2.8,3.4-3.6,5.4c-0.3,0-0.7,0-1,0c-8.5,0-15.5,6.9-15.5,15.5c0,5.9,3.3,11.1,8.2,13.6
			C908.2,2135.6,914.5,2141.2,922.1,2141.3z"/>
		<path class="st6" d="M941.9,2108.9c-2.3-5.7-7.9-9.7-14.4-9.7c-1.6,0-3.2,0.3-4.7,0.7c-2.1-6.1-7.8-10.6-14.7-10.6
			c-6.6,0-12.2,4.1-14.4,9.9c-0.3,0-0.7,0-1,0c-8.5,0-15.5,6.9-15.5,15.5c0,5.9,3.3,11,8.2,13.7c1.2,7.4,7.6,13.1,15.3,13.1
			c4,0,7.7-1.5,10.5-4.1c2.8,2.5,6.4,4.1,10.5,4.1c3.7,0,7-1.3,9.7-3.4c1.8,0.7,3.7,1.1,5.8,1.1c8.5,0,15.5-6.9,15.5-15.5
			C952.5,2116.8,948.1,2110.9,941.9,2108.9z"/>
	</g>
	<g>
		<path class="st14" d="M890.1,2011.7c0.7-1.8,1.1-3.7,1.1-5.7c0-8.3-6.7-15.1-15.1-15.1c-1.6,0-3.1,0.2-4.5,0.7
			c-2-6-7.6-10.3-14.3-10.3c-6.4,0-11.9,4-14,9.6c-0.3,0-0.7,0-1,0c-8.3,0-15.1,6.7-15.1,15.1c0,1.3,0.2,2.5,0.5,3.7
			c-2.3,2.6-3.7,6.1-3.7,9.9c0,8.3,6.7,15.1,15.1,15.1c2,0,3.9-0.4,5.7-1.1c2.7,4.1,7.3,6.9,12.6,6.9c5.3,0,9.9-2.7,12.6-6.8
			c2.4,1.6,5.2,2.5,8.3,2.5c8.3,0,15.1-6.7,15.1-15.1C893.4,2017.5,892.2,2014.2,890.1,2011.7z"/>
		<path class="st15" d="M893.4,2021c0,7.1-4.9,13.1-11.6,14.7c1.3-2.2,2-4.7,2-7.4c0-3.5-1.2-6.8-3.2-9.3c1.6-3.9,1.7-8.7-0.8-13.2
			c-2.6-4.7-7.7-7.6-13-7.6c0,0-0.1,0-0.1,0c-2.7,0-5.1-1.4-6.8-3.6c-0.4-0.5-0.8-1-1.2-1.4c2.3-1.4,5-2.2,7.9-2.2c0.3,0,0.7,0,1,0
			c0.5-1.3,1.2-2.5,2-3.6c1,1.3,1.7,2.7,2.2,4.2c1.5-0.5,3-0.7,4.6-0.7c5.3,0,10.4,3,13,7.6c2.5,4.5,2.4,9.3,0.8,13.2
			C892.2,2014.2,893.4,2017.5,893.4,2021z"/>
		<path class="st0" d="M868.9,2033.5c0.2,0.3,0.3,0.5,0.5,0.7c-2.7,3.7-7.1,6.1-12,6.1c-5.3,0-9.9-2.7-12.6-6.9
			c-1.8,0.7-3.7,1.1-5.7,1.1c-8.3,0-15.1-6.8-15.1-15.1c0-3.8,1.4-7.3,3.7-9.9c-0.3-1.2-0.5-2.4-0.5-3.7c0-8.3,6.8-15,15.1-15
			c0.3,0,0.7,0,1,0c2.2-5.6,7.7-9.6,14-9.6c4.9,0,9.3,2.4,12,6c-0.8,1.1-1.4,2.3-2,3.6c-0.3,0-0.7,0-1,0c-8.3,0-15.1,6.7-15.1,15
			c0,1.3,0.2,2.5,0.5,3.7c-2.3,2.7-3.7,6.1-3.7,9.9c0,8.3,6.7,15.1,15.1,15.1C865.2,2034.6,867.2,2034.2,868.9,2033.5z"/>
		<path class="st6" d="M890.1,2011.7c0.7-1.8,1.1-3.7,1.1-5.7c0-8.3-6.7-15.1-15.1-15.1c-1.6,0-3.1,0.2-4.5,0.7
			c-2-6-7.6-10.3-14.3-10.3c-6.4,0-11.9,4-14,9.6c-0.3,0-0.7,0-1,0c-8.3,0-15.1,6.7-15.1,15.1c0,1.3,0.2,2.5,0.5,3.7
			c-2.3,2.6-3.7,6.1-3.7,9.9c0,8.3,6.7,15.1,15.1,15.1c2,0,3.9-0.4,5.7-1.1c2.7,4.1,7.3,6.9,12.6,6.9c5.3,0,9.9-2.7,12.6-6.8
			c2.4,1.6,5.2,2.5,8.3,2.5c8.3,0,15.1-6.7,15.1-15.1C893.4,2017.5,892.2,2014.2,890.1,2011.7z"/>
	</g>
	<g>
		<path class="st14" d="M955.9,1999.8c-1.4-0.2-2.8-0.3-4.2-0.2c-9,0.8-15.8,8.7-15,17.7c0.5,5.4,3.5,10,7.8,12.6c0,0.2,0,0.4,0,0.6
			c0.3,3.6,1.7,6.8,3.9,9.3c-0.8,2.2-1.1,4.5-0.9,6.9c0.3,3.4,1.6,6.5,3.6,9c-2.5,3.2-3.9,7.3-3.5,11.6c0.8,9,8.7,15.8,17.7,15
			c7.8-0.7,13.8-6.6,14.9-14.1c1.6,0.4,3.4,0.5,5.2,0.4c9-0.8,15.8-8.7,15-17.7c-0.6-6.8-5.2-12.3-11.3-14.3c3-3.3,4.7-7.8,4.3-12.6
			c-0.5-5.5-3.6-10.2-8.1-12.8c0.1-1,0.1-2,0-3c-0.8-9-8.7-15.8-17.7-15C962.8,1993.7,958.6,1996.2,955.9,1999.8z"/>
		<path class="st15" d="M985.4,2068.7c-0.8,0.1-1.6,0.1-2.4,0c5.1-3.2,8.3-9,7.7-15.4c-0.6-6.8-5.2-12.3-11.3-14.3
			c3-3.3,4.7-7.7,4.3-12.6c-0.5-5.6-3.6-10.2-8.1-12.8c0.1-1,0.1-2,0-3c-0.7-8.2-7.3-14.5-15.4-15c2.1-1.3,4.6-2.2,7.3-2.4
			c9.1-0.7,17,6,17.7,15c0.1,1,0.1,2,0,3c4.5,2.6,7.6,7.3,8.1,12.8c0.4,4.8-1.3,9.3-4.3,12.6c6.1,2,10.7,7.5,11.3,14.3
			C1001.2,2060,994.4,2067.9,985.4,2068.7z"/>
		<path class="st0" d="M970,2081.3c-1.4,0.6-3,1-4.6,1.1c-9.1,0.8-17-6-17.8-15c-0.4-4.3,1-8.4,3.5-11.6c-2-2.5-3.4-5.6-3.6-9
			c-0.2-2.4,0.1-4.8,0.9-7c-2.1-2.5-3.6-5.7-3.9-9.3c0-0.2,0-0.4,0-0.6c-4.3-2.7-7.3-7.2-7.8-12.6c-0.7-9,6-17,15-17.7
			c1.4-0.1,2.8,0,4.2,0.2c2.7-3.6,6.9-6.1,11.7-6.5c2.6-0.2,5.1,0.2,7.4,1.1c-2.8,1.1-6.7-0.8-8.5,1.6c-1.4-0.2,0.1-0.4-1.4-0.2
			c-9.1,0.7-17.2,12.6-16.4,21.6c0.5,5.4,3.5,10,7.8,12.6c0,0.2,0,0.4,0,0.6c0.3,3.6,1.7,6.8,3.9,9.3c-0.8,2.1-1.1,4.5-0.9,7
			c0.3,3.4,1.6,6.5,3.6,9c-2.5,3.2-3.9,7.3-3.5,11.6C960.2,2073.8,964.4,2079,970,2081.3z"/>
		<path class="st6" d="M955.9,1999.8c-1.4-0.2-2.8-0.3-4.2-0.2c-9,0.8-15.8,8.7-15,17.7c0.5,5.4,3.5,10,7.8,12.6c0,0.2,0,0.4,0,0.6
			c0.3,3.6,1.7,6.8,3.9,9.3c-0.8,2.2-1.1,4.5-0.9,6.9c0.3,3.4,1.6,6.5,3.6,9c-2.5,3.2-3.9,7.3-3.5,11.6c0.8,9,8.7,15.8,17.7,15
			c7.8-0.7,13.8-6.6,14.9-14.1c1.6,0.4,3.4,0.5,5.2,0.4c9-0.8,15.8-8.7,15-17.7c-0.6-6.8-5.2-12.3-11.3-14.3c3-3.3,4.7-7.8,4.3-12.6
			c-0.5-5.5-3.6-10.2-8.1-12.8c0.1-1,0.1-2,0-3c-0.8-9-8.7-15.8-17.7-15C962.8,1993.7,958.6,1996.2,955.9,1999.8z"/>
	</g>
	<g>
		<path class="st14" d="M839.9,2106.2c0.4-1.5,0.6-3.1,0.6-4.7c0-10.3-8.3-18.6-18.6-18.6c-10,0-18.2,8-18.6,17.9
			c-2.7-4.2-7-7.2-12-8.2c0.1-0.7,0.1-1.4,0.1-2.2c0-10.3-8.3-18.6-18.6-18.6c-10.3,0-18.6,8.3-18.6,18.6c0,1,0.1,2,0.2,2.9
			c-5.2,3.3-8.6,9.1-8.6,15.7c0,8.4,5.5,15.4,13.1,17.8c-0.1,0.9-0.2,1.7-0.2,2.6c0,10.3,8.3,18.6,18.6,18.6
			c6.7,0,12.5-3.5,15.8-8.8c2.9,1.9,6.4,3,10.2,3c5.7,0,10.8-2.6,14.2-6.6c2.9,1.8,6.3,2.9,10,2.9c10.3,0,18.6-8.3,18.6-18.6
			C846.1,2114.5,843.7,2109.6,839.9,2106.2z"/>
		<path class="st15" d="M846.1,2120c0,7.6-4.6,14.2-11.2,17c1-2.3,1.5-4.8,1.5-7.4c0-5.5-2.4-10.4-6.2-13.8c0.4-1.5,0.6-3.1,0.6-4.8
			c0-10.3-8.3-18.6-18.6-18.6c-2.6,0-5.1,0.5-7.4,1.5c2.8-6.6,9.4-11.2,17-11.2c10.3,0,18.6,8.3,18.6,18.6c0,1.6-0.2,3.2-0.6,4.8
			C843.7,2109.6,846.1,2114.5,846.1,2120z"/>
		<path class="st0" d="M789.5,2143.5c-3.3,2.8-7.5,4.5-12.1,4.5c-10.3,0-18.6-8.3-18.6-18.6c0-0.9,0.1-1.8,0.2-2.6
			c-7.6-2.3-13.1-9.4-13.1-17.8c0-6.6,3.5-12.4,8.6-15.7c-0.1-0.9-0.2-1.9-0.2-2.9c0-10.3,8.3-18.6,18.6-18.6
			c4.6,0,8.8,1.7,12.1,4.5c-4,3.4-6.5,8.4-6.5,14.1c0,1,0.1,2,0.2,2.9c-5.2,3.3-8.6,9.1-8.6,15.7c0,8.4,5.5,15.4,13.1,17.8
			c-0.1,0.8-0.2,1.7-0.2,2.6C783,2135,785.5,2140.1,789.5,2143.5z"/>
		<path class="st6" d="M839.9,2106.2c0.4-1.5,0.6-3.1,0.6-4.7c0-10.3-8.3-18.6-18.6-18.6c-10,0-18.2,8-18.6,17.9
			c-2.7-4.2-7-7.2-12-8.2c0.1-0.7,0.1-1.4,0.1-2.2c0-10.3-8.3-18.6-18.6-18.6c-10.3,0-18.6,8.3-18.6,18.6c0,1,0.1,2,0.2,2.9
			c-5.2,3.3-8.6,9.1-8.6,15.7c0,8.4,5.5,15.4,13.1,17.8c-0.1,0.9-0.2,1.7-0.2,2.6c0,10.3,8.3,18.6,18.6,18.6
			c6.7,0,12.5-3.5,15.8-8.8c2.9,1.9,6.4,3,10.2,3c5.7,0,10.8-2.6,14.2-6.6c2.9,1.8,6.3,2.9,10,2.9c10.3,0,18.6-8.3,18.6-18.6
			C846.1,2114.5,843.7,2109.6,839.9,2106.2z"/>
	</g>
	<g>
		<path class="st14" d="M760.5,2186.4c0-10.1-8.2-18.4-18.4-18.4c-3.9,0-7.4,1.2-10.4,3.2c-3.3-3.1-7.7-5-12.6-5
			c-6.4,0-12,3.2-15.3,8.2c-2.9-1.8-6.2-2.9-9.9-2.9c-9,0-16.5,6.5-18,15c0,0,0,0,0,0c0,0,0,0,0,0c-0.1,0-0.1,0-0.2,0
			c-0.5,0.1-0.9,0.1-1.4,0.2c-0.2,0-0.4,0.1-0.5,0.1c-0.2,0-0.3,0.1-0.5,0.1c-0.2,0.1-0.4,0.1-0.6,0.2c-0.3,0.1-0.6,0.2-1,0.3
			c-0.2,0.1-0.3,0.1-0.5,0.2c0,0,0,0,0,0c-6.8,2.7-11.7,9.3-11.7,17.1c0,10.1,8.2,18.4,18.4,18.4c2.9,0,5.7-0.7,8.1-1.9
			c3,6.2,9.2,10.5,16.6,10.5c4.7,0,8.9-1.8,12.1-4.6c0,0,0,0,0,0c0.1-0.1,0.1-0.1,0.2-0.2c0.3-0.3,0.7-0.6,1-1
			c0.1-0.1,0.2-0.2,0.3-0.4c0.1-0.1,0.1-0.2,0.2-0.2c0.2-0.2,0.4-0.5,0.6-0.8c0.1-0.2,0.3-0.4,0.4-0.6c0.2-0.3,0.4-0.6,0.6-0.9
			c0.1-0.2,0.3-0.4,0.4-0.7c0.1-0.2,0.2-0.4,0.3-0.6c0.1-0.1,0.1-0.3,0.2-0.4c0.1-0.2,0.2-0.4,0.3-0.6c0.1-0.3,0.3-0.6,0.4-0.9
			c0-0.1,0.1-0.2,0.1-0.3c0,0,0,0,0,0c0,0,0,0,0,0c3,2.1,6.6,3.4,10.6,3.4c9.7,0,17.7-7.6,18.3-17.2c0,0,0,0,0,0c0-0.4,0-0.8,0-1.1
			c0,0,0,0,0,0c0,0,0,0,0,0c0-0.3,0-0.7,0-1c0,0,0,0,0,0c0,0,0,0,0,0C755.7,2200.8,760.5,2194.1,760.5,2186.4z"/>
		<path class="st15" d="M760.5,2186.4c0,3.9-1.2,7.5-3.3,10.5c-2,2.9-4.9,5.2-8.2,6.5c4.2-28.1-17.3-32.1-17.3-32.1
			c2.9-2,6.5-3.2,10.4-3.2C752.3,2168,760.5,2176.2,760.5,2186.4z"/>
		<path class="st0" d="M709.2,2218.1c3.5-0.4,6.9,0.6,9.3,3.1c0.2,0.2,0.3,0.3,0.5,0.5c0,0,0,0,0,0c-0.1,0.2-0.2,0.4-0.3,0.6
			s-0.3,0.4-0.4,0.7c-0.2,0.3-0.4,0.6-0.6,0.9c-0.1,0.2-0.3,0.4-0.4,0.6c-0.2,0.3-0.4,0.5-0.6,0.7c-0.1,0.1-0.1,0.2-0.2,0.2
			c-0.1,0.1-0.2,0.2-0.3,0.4c-0.3,0.3-0.7,0.7-1,1c-0.1,0.1-0.1,0.1-0.2,0.2c-3.2,2.8-7.5,4.6-12.1,4.6c-7.3,0-13.6-4.3-16.6-10.5
			c-3.6,1.8-7.8,2.5-12.2,1.4c-7.8-1.8-13.7-8.7-14.2-16.7c-0.5-8.3,4.5-15.5,11.6-18.3c0,0,0,0,0,0c0.1-0.1,0.3-0.1,0.5-0.2
			c0.3-0.1,0.6-0.2,1-0.3c0.2,0,0.4-0.1,0.6-0.1c0.2,0,0.3-0.1,0.5-0.1c0.2,0,0.4-0.1,0.6-0.1c0.5-0.1,0.9-0.1,1.4-0.2
			c0.1,0,0.1,0,0.2,0c1.6-8.5,9.1-15,18-15c3.6,0,7,1.1,9.9,2.9c3.3-4.9,8.9-8.2,15.3-8.2c1.3,0,2.6,0.1,3.8,0.4
			c-8.2,0-15.1,5.3-17.5,12.7c-0.5,1.4-1.6,2.5-3.1,2.9c-1.1,0.3-2.1,0.5-2.2,0.6c0,0,0,0,0,0c-7.1,2.8-12.1,10-11.6,18.3
			c0.5,8,6.4,14.9,14.2,16.7C705,2218.3,707.1,2218.4,709.2,2218.1z"/>
		<path class="st6" d="M760.5,2186.4c0-10.1-8.2-18.4-18.4-18.4c-3.9,0-7.4,1.2-10.4,3.2c-3.3-3.1-7.7-5-12.6-5
			c-6.4,0-12,3.2-15.3,8.2c-2.9-1.8-6.2-2.9-9.9-2.9c-9,0-16.5,6.5-18,15c0,0,0,0,0,0c0,0,0,0,0,0c-0.1,0-0.1,0-0.2,0
			c-0.5,0.1-0.9,0.1-1.4,0.2c-0.2,0-0.4,0.1-0.5,0.1c-0.2,0-0.3,0.1-0.5,0.1c-0.2,0.1-0.4,0.1-0.6,0.2c-0.3,0.1-0.6,0.2-1,0.3
			c-0.2,0.1-0.3,0.1-0.5,0.2c0,0,0,0,0,0c-6.8,2.7-11.7,9.3-11.7,17.1c0,10.1,8.2,18.4,18.4,18.4c2.9,0,5.7-0.7,8.1-1.9
			c3,6.2,9.2,10.5,16.6,10.5c4.7,0,8.9-1.8,12.1-4.6c0,0,0,0,0,0c0.1-0.1,0.1-0.1,0.2-0.2c0.3-0.3,0.7-0.6,1-1
			c0.1-0.1,0.2-0.2,0.3-0.4c0.1-0.1,0.1-0.2,0.2-0.2c0.2-0.2,0.4-0.5,0.6-0.8c0.1-0.2,0.3-0.4,0.4-0.6c0.2-0.3,0.4-0.6,0.6-0.9
			c0.1-0.2,0.3-0.4,0.4-0.7c0.1-0.2,0.2-0.4,0.3-0.6c0.1-0.1,0.1-0.3,0.2-0.4c0.1-0.2,0.2-0.4,0.3-0.6c0.1-0.3,0.3-0.6,0.4-0.9
			c0-0.1,0.1-0.2,0.1-0.3c0,0,0,0,0,0c0,0,0,0,0,0c3,2.1,6.6,3.4,10.6,3.4c9.7,0,17.7-7.6,18.3-17.2c0,0,0,0,0,0c0-0.4,0-0.8,0-1.1
			c0,0,0,0,0,0c0,0,0,0,0,0c0-0.3,0-0.7,0-1c0,0,0,0,0,0c0,0,0,0,0,0C755.7,2200.8,760.5,2194.1,760.5,2186.4z"/>
		<path class="st0" d="M697.9,2171.9c-1.2-0.3-2.5-0.4-3.8-0.4"/>
	</g>
</g>
</svg>
