<?xml version="1.0" encoding="utf-8"?>
<!-- Generator: Adobe Illustrator 24.1.0, SVG Export Plug-In . SVG Version: 6.00 Build 0)  -->
<svg version="1.1" id="Layer_1" xmlns="http://www.w3.org/2000/svg" xmlns:xlink="http://www.w3.org/1999/xlink" x="0px" y="0px"
	 viewBox="0 0 1920 1080" style="enable-background:new 0 0 1920 1080;" xml:space="preserve">
<style type="text/css">
	.st0{fill:#231F20;}
	.st1{fill:#F9F9F9;}
</style>
<rect class="st0" width="1920" height="1080"/>
<g>
	<path class="st1" d="M865.3,699.9c-0.7-5.6-1.2-11.2-1.7-16.6c-8.3-2-17.2-3.6-26.7-4.8c-7.2-0.9-13.9-1.9-20.2-3.1
		c3.3,19.8,12.9,56.4,27.1,67.1c2.3,1.7,4.6,2.6,6.9,2.7l0,0c0.6,0.1,2.1-0.1,2.2-0.1C864.9,743.3,868.8,728.9,865.3,699.9z
		 M854.2,735.1c-1.7,0.7-3.4,1-4.9,1c-6.4,0-10.9-5.3-12-7.5c-0.5-1-4.7-19.2-4.7-19.2c-0.3-1.8,0-3.5,0.9-4.5
		c1.8-1.9,5.1-5.3,10.3-9.6c1.3-1.1,2.6-1.6,3.7-1.6c5.6,0,8.8,12.3,11.8,19.7C862.8,722.3,861.8,731.8,854.2,735.1z"/>
	<path class="st1" d="M809.4,552.8c-12.3,9.5-17,27.9-19.1,39.2c4.9-2.3,9.9-4.3,15-5.9C806.4,574.1,807.8,563.1,809.4,552.8z"/>
	<path class="st1" d="M830.5,669.4c16.3-14.5,12.9-34.4,10.7-42.3c-0.2-0.9-0.8-1.6-1.5-2.1c-10.4-6.6-20.9-10.3-31.3-11
		c-8.4-0.6-16.2,3.4-21.5,10.9c-5.7,8.1-7.1,18.7-3.5,26.9c0.9,2,4.5,6.9,5.9,8.4c9.9,3.7,23.1,7.1,40.8,9.7
		C830.1,669.7,830.3,669.6,830.5,669.4z"/>
	<path class="st1" d="M911.7,898c21.7,12.4,100.4,49.2,201.2-0.3C1082.7,889.7,985.1,868,911.7,898z M1063.4,901.8
		c0,11.2-38.9,12.4-55.7,12.4c-16.8,0-55.7-1.2-55.7-12.4s39-12.4,55.7-12.4S1063.4,890.6,1063.4,901.8z"/>
	<path class="st1" d="M1053.8,901.8c-5.8-2.2-21.3-4.8-46.1-4.8c-24.8,0-40.3,2.7-46.1,4.8c5.9,2.1,21.3,4.8,46.1,4.8
		C1032.5,906.7,1048,904,1053.8,901.8z"/>
	<path class="st1" d="M850.3,711.3c-0.9-2.4-2.3-6.2-3.5-8.6c-3,2.6-5.2,4.7-6.6,6.2c1.6,6.9,3.4,14.3,4,16.6c0.7,1,2.8,3.1,5,3.1
		c0.6,0,1.2-0.1,1.9-0.4c3.7-1.6,2.6-8,1-11.9C851.6,714.7,851,713,850.3,711.3z"/>
	<path class="st1" d="M1140.2,242.4c1.9-1,4.2-0.3,5.2,1.5c2.4,4.5,9.5,3.7,13.2,2.9c1.7-22.6,4.6-44.8-11-49.8
		c-14.8-4.7-28.4,13.3-39.7,36.4c3.1,2.9,8.6,6.9,13.2,5.7c2.1-0.5,4.1,0.7,4.6,2.8c0.5,2.1-0.7,4.1-2.7,4.6
		c-1.2,0.3-2.4,0.4-3.5,0.4c-5.9,0-11.3-3.5-14.8-6.3c-7,15.9-13.3,35-19.1,55.2c1.4,1,2.7,2.1,3.9,3.1c6.8,5.6,12.2,10,38.9,13.8
		c2.1,0.3,3.5,2.2,3.2,4.3c-0.3,1.9-1.9,3.3-3.7,3.3c-0.2,0-0.4,0-0.6,0c-28.8-4.1-35.2-9.4-42.6-15.5c-0.4-0.4-0.9-0.7-1.3-1.1
		c-5.5,19.7-10.5,40.2-15.3,59.5c6.7,0,18.1,2.9,33.9,17.2c1.5,1.4,1.7,3.8,0.3,5.4c-0.8,0.8-1.8,1.2-2.8,1.2c-0.9,0-1.8-0.3-2.6-1
		c-16.6-15.1-26.9-15.6-30.7-15.1c-13.6,55.2-23,89.2-36,95.3c-3.1,1.4-6.3,1.4-9.4-0.2c-18.2-9.1-32.7-68.6-52.8-158.4
		c-6.4-28.9-13.6-60.9-20.9-87.8c-3.1,1.7-6.9,3-10.7,3c-3.3,0-6.5-1-9.3-3.6c-1.5-1.4-1.6-3.8-0.2-5.4c1.4-1.5,3.8-1.6,5.4-0.2
		c3.7,3.4,9.6,0.5,12.8-1.5c-8.4-29.6-16.7-49.7-24.7-53.3c-7.9-3.6-15.1-1-19.8,2.8c-8.8,7.1-8.7,22-8.7,22.2
		c-0.2,10.7-0.2,21.2,0,31.5c2.1,0.9,5.2,1.9,8.1,1.9c1.8,0,3.6-0.4,5.1-1.4c1.7-1.1,4.1-0.7,5.3,1.1c1.1,1.7,0.7,4.1-1.1,5.3
		c-2.9,1.9-6.2,2.6-9.3,2.6c-2.9,0-5.7-0.6-8-1.3c0.5,17.3,1.6,34.2,3.1,50.4c8.8,0.3,33.3,0.7,47.9-4.8c2-0.7,4.1,0.3,4.9,2.2
		c0.7,2-0.3,4.2-2.2,4.9c-12.3,4.6-30.1,5.5-41.9,5.5c-3.1,0-5.9-0.1-7.9-0.1c3.5,35.2,8.9,67.4,14.6,95.7c6.9,1.5,28.2,4.7,41.1-8
		c1.5-1.5,3.9-1.5,5.4,0s1.4,3.9,0,5.4c-9.5,9.4-22.2,11.8-32.5,11.8c-4.8,0-9.1-0.5-12.3-1.1c5.6,26.7,11.3,49.5,15.7,67.2
		c0.9,3.6,1.7,6.9,2.5,10c5.8-2.8,17-5.6,36.3-1.5c2.1,0.4,3.4,2.5,2.9,4.5c-0.4,2.1-2.5,3.4-4.5,2.9c-19.9-4.2-29.4-0.4-32.8,1.7
		c4.8,19.9,5.9,27.5,3.2,31.4c-0.9,1.4-2.3,2.2-3.9,2.4c-6.7,0.8-11.5-6-17.5-14.7c-10.6-15.3-23.8-34.4-51.9-26.1
		c-19.9,5.9-34.7,33.8-43.5,81.5l0,0c-0.2,0.8-2.6,18.6-2.6,18.6c3-0.9,7.4-1.7,12.4-1.2c2.1,0.2,3.6,2.1,3.4,4.2
		c-0.2,2.1-2.1,3.6-4.2,3.4c-6.8-0.7-12.1,1.8-12.2,1.9c-0.2,0.1-0.4,0.2-0.6,0.3l-1.6,12c16.3-4.2,33.4-5,51.1-2.5
		c3.2-28.5,9.1-43.1,18.4-46c6.2-1.9,12.6,1.4,19.8,10c1.3,1.6,1.1,4-0.5,5.4c-1.6,1.3-4,1.1-5.4-0.5c-4.8-5.7-8.9-8.4-11.7-7.6
		c-2.7,0.8-9.4,6.5-13.1,39.9c2.6,0.5,5.2,1,7.9,1.7c33.3,8,59.2,25.3,68.8,32.4c4.3,3.2,8.3,5.5,12.3,7.1
		c54.7,22.6,93.5-38.4,93.8-39c1.1-1.8,3.4-2.3,5.2-1.2c1.8,1.1,2.3,3.4,1.2,5.2c-0.4,0.7-42.7,67.1-103.2,42.1
		c-4.6-1.9-9.1-4.5-13.9-8c-27.2-20-52.6-29.9-75.2-33.5c-1.1-0.2-2.2-0.3-3.3-0.5c-47.9-6.5-82.8,14.9-95.4,24.2
		c-5.3,3.9-8.9,9.6-9.8,15.5c-0.9,5.7,0.5,11,4.1,15.9c2.3,3,5.9,6.4,11.5,9.8c-4.3-10.6-2.6-23.3,4.6-33.4
		c6.9-9.8,17.2-14.9,28.3-14.2c11.7,0.8,23.4,4.9,34.9,12.2c2.3,1.5,4,3.7,4.8,6.4c1.9,6.7,6.5,28.8-9,46.2
		c10.1,1.3,19.5,3.1,28.1,5.3c0.3,0,0.6,0.1,0.8,0.2h0.1c2.7,0.7,5.2,1.4,7.8,2.2c0.7-10.8,3.4-36.4,13.6-49.5
		c1.3-1.6,3.7-1.9,5.3-0.6c1.7,1.3,2,3.7,0.7,5.3c-9.5,12.1-11.7,38.7-12.1,47.2c22.3,7.6,39.2,17.8,52,28c0.3,0.2,0.5,0.3,0.7,0.6
		c5.6,4.5,10.4,9,14.4,13.3c20.3,21.6,26.3,41.4,26.5,42.2c0.6,2-0.6,4.1-2.6,4.7c-0.4,0.1-0.7,0.1-1.1,0.1c-1.6,0-3.2-1.1-3.6-2.7
		c-0.1-0.4-7.4-23.7-32.6-46.6c0.3,23.4,3.7,88.8,32.2,108.5c1.7,1.2,2.2,3.6,1,5.3c-0.7,1.1-1.9,1.6-3.1,1.6
		c-0.8,0-1.5-0.2-2.2-0.7c-35.5-24.7-35.8-106.7-35.5-121.5c-14.3-11.3-33.4-22-58.5-29.1c0.4,4.4,0.9,9,1.5,13.6
		c1.5,12.8,5.5,45.8-14.9,52.8c35.1,57.6,46.2,121.8,48.7,140.1c26.9-11.4,72.2-22.1,141-14.2c28.8,3.3,53,8.9,66.1,12.4
		c-59.5-90.3-21-292.8,13.1-461.8c-9.6-1.8-33.8-7.7-46.6-22.7c-1.3-1.6-1.2-4,0.4-5.4c1.6-1.4,4-1.2,5.4,0.4
		c11.2,13.1,33.6,18.5,42.3,20.1c0.6-2.9,1.2-5.9,1.8-8.8c12.4-61.2,23.7-117.5,27.7-157.1c-1.4,0.2-3,0.4-4.5,0.4
		c-5.7,0-11.6-1.8-14.7-7.6C1137.6,245.7,1138.3,243.4,1140.2,242.4z M934.1,241.1c-0.9,0.5-7.6,3.7-14.6,3.7
		c-2.2,0-4.4-0.3-6.5-1.1c-3.8-1.5-6.6-4.4-8.1-8.5c-0.7-2,0.3-4.2,2.2-4.9c2-0.7,4.2,0.3,4.9,2.2c0.8,2.1,2,3.4,3.8,4.1
		c4.8,1.9,12.6-1.1,14.9-2.3c1.9-0.9,4.2-0.2,5.1,1.7C936.8,237.9,936,240.2,934.1,241.1z M852.2,546.3c-0.5,2-2.6,3.2-4.6,2.7
		c-6.6-1.7-12.2-0.1-12.3,0c-0.3,0.1-0.8,0.2-1.1,0.2c-1.6,0-3.1-1.1-3.6-2.7c-0.6-2,0.5-4.1,2.5-4.8c0.3-0.1,7.7-2.3,16.5,0
		C851.6,542.2,852.8,544.3,852.2,546.3z M1020,480.5c-0.6,2-2.7,3.2-4.7,2.6c-18.7-5.6-29,4.7-29.1,4.8c-0.7,0.8-1.7,1.1-2.7,1.1
		s-1.9-0.4-2.7-1.1c-1.5-1.5-1.5-3.9-0.1-5.4c0.6-0.6,13.7-13.8,36.7-6.8C1019.4,476.4,1020.6,478.5,1020,480.5z M920.6,660.7
		c-0.7,1.2-2,1.9-3.3,1.9c-0.7,0-1.3-0.2-1.9-0.5c-1.8-1-2.4-3.4-1.3-5.2c10.4-17.9,6.4-35.3,6.3-35.5c-0.5-2,0.8-4.1,2.8-4.6
		s4.1,0.8,4.6,2.8C927.9,620.4,932.6,640.2,920.6,660.7z M984.3,743c1-1.8,3.3-2.4,5.1-1.4c0.4,0.2,11.4,4.9,44.2-6.2
		c2-0.7,4.1,0.4,4.8,2.4c0.7,2-0.4,4.1-2.4,4.8c-18.1,6.2-30.3,7.8-38.1,7.8c-8.1,0-11.5-1.7-12.2-2.1
		C983.8,747.1,983.2,744.8,984.3,743z M984.5,760.5c1.3-1.6,3.6-1.9,5.2-0.7c0.4,0.3,10.5,6.5,44.6,0.3c2.1-0.4,4,1,4.4,3
		c0.4,2.1-1,4.1-3.1,4.4c-11.6,2.1-20.7,2.9-27.8,2.9c-16.3,0-22-4-22.8-4.6C983.5,764.5,983.2,762.2,984.5,760.5z M985.4,789.9
		c-1.3-1.6-1.1-4,0.6-5.3c1.6-1.3,3.9-1.1,5.3,0.5c0.3,0.3,8.8,8.6,43.4,10c2.1,0.1,3.8,1.8,3.7,4c-0.1,2-1.8,3.6-3.8,3.6h-0.1
		C995.5,801.1,986.3,791.1,985.4,789.9z M1040.6,837c-0.3,1.9-1.9,3.2-3.7,3.2c-0.2,0-0.4,0-0.6-0.1c-38.5-5.9-46.5-16.9-47.2-18.2
		c-1.1-1.8-0.6-4.1,1.2-5.2c1.7-1.1,4-0.6,5.2,1.1c0.3,0.4,7.8,9.6,42.1,14.8C1039.5,833,1040.9,834.9,1040.6,837z M1097.6,506.6
		c2.2-0.1,3.9,1.5,4,3.6c0.1,2.1-1.5,3.9-3.6,4c-0.8,0-1.6,0-2.5,0c-26.6,0-49.7-22.8-50.7-23.8c-1.5-1.5-1.5-3.9,0-5.4
		s3.9-1.5,5.4,0C1050.5,485.3,1073.4,507.9,1097.6,506.6z M1139.7,260.1c1.6,1.4,1.8,3.7,0.5,5.4c-2.5,3-5.8,4.7-9.5,4.9h-0.5
		c-8.3,0-15.8-7.5-16.7-8.4c-1.5-1.5-1.4-3.9,0.1-5.4c1.5-1.4,3.9-1.4,5.4,0.1c1.7,1.7,6.8,6.1,11.2,6.1h0.2c1.6,0,2.8-0.7,4-2.2
		C1135.7,259,1138.1,258.8,1139.7,260.1z"/>
</g>
</svg>
