<?xml version="1.0" encoding="utf-8"?>
<!-- Generator: Adobe Illustrator 22.1.0, SVG Export Plug-In . SVG Version: 6.00 Build 0)  -->
<svg version="1.1" id="Layer_1" xmlns="http://www.w3.org/2000/svg" xmlns:xlink="http://www.w3.org/1999/xlink" x="0px" y="0px"
	 viewBox="0 0 430 765.6" style="enable-background:new 0 0 430 765.6;" xml:space="preserve">
<style type="text/css">
	.st0{fill:#231F20;}
</style>
<g>
	<path class="st0" d="M120.3,542.7c-0.7-5.6-1.2-11.2-1.7-16.6c-8.3-2-17.2-3.6-26.7-4.8c-7.2-0.9-13.9-1.9-20.2-3.1
		c3.3,19.8,12.9,56.4,27.1,67.1c2.3,1.7,4.6,2.6,6.9,2.7l0,0c0.6,0.1,2.1-0.1,2.2-0.1C119.9,586.1,123.8,571.7,120.3,542.7z
		 M109.2,577.9c-1.7,0.7-3.4,1-4.9,1c-6.4,0-10.9-5.3-12-7.5c-0.5-1-4.7-19.2-4.7-19.2c-0.3-1.8,0-3.5,0.9-4.5
		c1.8-1.9,5.1-5.3,10.3-9.6c1.3-1.1,2.6-1.6,3.7-1.6c5.6,0,8.8,12.3,11.8,19.7C117.8,565.1,116.8,574.6,109.2,577.9z"/>
	<path class="st0" d="M64.4,395.6c-12.3,9.5-17,27.9-19.1,39.2c4.9-2.3,9.9-4.3,15-5.9C61.4,416.9,62.8,405.9,64.4,395.6z"/>
	<path class="st0" d="M85.5,512.2c16.3-14.5,12.9-34.4,10.7-42.3c-0.2-0.9-0.8-1.6-1.5-2.1c-10.4-6.6-20.9-10.3-31.3-11
		c-8.4-0.6-16.2,3.4-21.5,10.9c-5.7,8.1-7.1,18.7-3.5,26.9c0.9,2,4.5,6.9,5.9,8.4c9.9,3.7,23.1,7.1,40.8,9.7
		C85.1,512.5,85.3,512.4,85.5,512.2z"/>
	<path class="st0" d="M166.7,740.8c21.7,12.4,100.4,49.2,201.2-0.3C337.7,732.5,240.1,710.8,166.7,740.8z M318.4,744.6
		c0,11.2-38.9,12.4-55.7,12.4s-55.7-1.2-55.7-12.4s39-12.4,55.7-12.4S318.4,733.4,318.4,744.6z"/>
	<path class="st0" d="M308.8,744.6c-5.8-2.2-21.3-4.8-46.1-4.8s-40.3,2.7-46.1,4.8c5.9,2.1,21.3,4.8,46.1,4.8
		C287.5,749.5,303,746.8,308.8,744.6z"/>
	<path class="st0" d="M105.3,554.1c-0.9-2.4-2.3-6.2-3.5-8.6c-3,2.6-5.2,4.7-6.6,6.2c1.6,6.9,3.4,14.3,4,16.6c0.7,1,2.8,3.1,5,3.1
		c0.6,0,1.2-0.1,1.9-0.4c3.7-1.6,2.6-8,1-11.9C106.6,557.5,106,555.8,105.3,554.1z"/>
	<path class="st0" d="M395.2,85.2c1.9-1,4.2-0.3,5.2,1.5c2.4,4.5,9.5,3.7,13.2,2.9c1.7-22.6,4.6-44.8-11-49.8
		c-14.8-4.7-28.4,13.3-39.7,36.4c3.1,2.9,8.6,6.9,13.2,5.7c2.1-0.5,4.1,0.7,4.6,2.8c0.5,2.1-0.7,4.1-2.7,4.6
		c-1.2,0.3-2.4,0.4-3.5,0.4c-5.9,0-11.3-3.5-14.8-6.3c-7,15.9-13.3,35-19.1,55.2c1.4,1,2.7,2.1,3.9,3.1c6.8,5.6,12.2,10,38.9,13.8
		c2.1,0.3,3.5,2.2,3.2,4.3c-0.3,1.9-1.9,3.3-3.7,3.3c-0.2,0-0.4,0-0.6,0c-28.8-4.1-35.2-9.4-42.6-15.5c-0.4-0.4-0.9-0.7-1.3-1.1
		c-5.5,19.7-10.5,40.2-15.3,59.5c6.7,0,18.1,2.9,33.9,17.2c1.5,1.4,1.7,3.8,0.3,5.4c-0.8,0.8-1.8,1.2-2.8,1.2c-0.9,0-1.8-0.3-2.6-1
		c-16.6-15.1-26.9-15.6-30.7-15.1c-13.6,55.2-23,89.2-36,95.3c-3.1,1.4-6.3,1.4-9.4-0.2c-18.2-9.1-32.7-68.6-52.8-158.4
		c-6.4-28.9-13.6-60.9-20.9-87.8c-3.1,1.7-6.9,3-10.7,3c-3.3,0-6.5-1-9.3-3.6c-1.5-1.4-1.6-3.8-0.2-5.4c1.4-1.5,3.8-1.6,5.4-0.2
		c3.7,3.4,9.6,0.5,12.8-1.5c-8.4-29.6-16.7-49.7-24.7-53.3c-7.9-3.6-15.1-1-19.8,2.8c-8.8,7.1-8.7,22-8.7,22.2
		c-0.2,10.7-0.2,21.2,0,31.5C149,59,152.1,60,155,60c1.8,0,3.6-0.4,5.1-1.4c1.7-1.1,4.1-0.7,5.3,1.1c1.1,1.7,0.7,4.1-1.1,5.3
		c-2.9,1.9-6.2,2.6-9.3,2.6c-2.9,0-5.7-0.6-8-1.3c0.5,17.3,1.6,34.2,3.1,50.4c8.8,0.3,33.3,0.7,47.9-4.8c2-0.7,4.1,0.3,4.9,2.2
		c0.7,2-0.3,4.2-2.2,4.9c-12.3,4.6-30.1,5.5-41.9,5.5c-3.1,0-5.9-0.1-7.9-0.1c3.5,35.2,8.9,67.4,14.6,95.7c6.9,1.5,28.2,4.7,41.1-8
		c1.5-1.5,3.9-1.5,5.4,0s1.4,3.9,0,5.4c-9.5,9.4-22.2,11.8-32.5,11.8c-4.8,0-9.1-0.5-12.3-1.1c5.6,26.7,11.3,49.5,15.7,67.2
		c0.9,3.6,1.7,6.9,2.5,10c5.8-2.8,17-5.6,36.3-1.5c2.1,0.4,3.4,2.5,2.9,4.5c-0.4,2.1-2.5,3.4-4.5,2.9c-19.9-4.2-29.4-0.4-32.8,1.7
		c4.8,19.9,5.9,27.5,3.2,31.4c-0.9,1.4-2.3,2.2-3.9,2.4c-6.7,0.8-11.5-6-17.5-14.7c-10.6-15.3-23.8-34.4-51.9-26.1
		c-19.9,5.9-34.7,33.8-43.5,81.5l0,0c-0.2,0.8-2.6,18.6-2.6,18.6c3-0.9,7.4-1.7,12.4-1.2c2.1,0.2,3.6,2.1,3.4,4.2s-2.1,3.6-4.2,3.4
		c-6.8-0.7-12.1,1.8-12.2,1.9c-0.2,0.1-0.4,0.2-0.6,0.3l-1.6,12c16.3-4.2,33.4-5,51.1-2.5c3.2-28.5,9.1-43.1,18.4-46
		c6.2-1.9,12.6,1.4,19.8,10c1.3,1.6,1.1,4-0.5,5.4c-1.6,1.3-4,1.1-5.4-0.5c-4.8-5.7-8.9-8.4-11.7-7.6c-2.7,0.8-9.4,6.5-13.1,39.9
		c2.6,0.5,5.2,1,7.9,1.7c33.3,8,59.2,25.3,68.8,32.4c4.3,3.2,8.3,5.5,12.3,7.1c54.7,22.6,93.5-38.4,93.8-39c1.1-1.8,3.4-2.3,5.2-1.2
		c1.8,1.1,2.3,3.4,1.2,5.2c-0.4,0.7-42.7,67.1-103.2,42.1c-4.6-1.9-9.1-4.5-13.9-8c-27.2-20-52.6-29.9-75.2-33.5
		c-1.1-0.2-2.2-0.3-3.3-0.5c-47.9-6.5-82.8,14.9-95.4,24.2c-5.3,3.9-8.9,9.6-9.8,15.5c-0.9,5.7,0.5,11,4.1,15.9
		c2.3,3,5.9,6.4,11.5,9.8c-4.3-10.6-2.6-23.3,4.6-33.4c6.9-9.8,17.2-14.9,28.3-14.2c11.7,0.8,23.4,4.9,34.9,12.2
		c2.3,1.5,4,3.7,4.8,6.4c1.9,6.7,6.5,28.8-9,46.2c10.1,1.3,19.5,3.1,28.1,5.3c0.3,0,0.6,0.1,0.8,0.2h0.1c2.7,0.7,5.2,1.4,7.8,2.2
		c0.7-10.8,3.4-36.4,13.6-49.5c1.3-1.6,3.7-1.9,5.3-0.6c1.7,1.3,2,3.7,0.7,5.3c-9.5,12.1-11.7,38.7-12.1,47.2
		c22.3,7.6,39.2,17.8,52,28c0.3,0.2,0.5,0.3,0.7,0.6c5.6,4.5,10.4,9,14.4,13.3c20.3,21.6,26.3,41.4,26.5,42.2c0.6,2-0.6,4.1-2.6,4.7
		c-0.4,0.1-0.7,0.1-1.1,0.1c-1.6,0-3.2-1.1-3.6-2.7c-0.1-0.4-7.4-23.7-32.6-46.6c0.3,23.4,3.7,88.8,32.2,108.5
		c1.7,1.2,2.2,3.6,1,5.3c-0.7,1.1-1.9,1.6-3.1,1.6c-0.8,0-1.5-0.2-2.2-0.7C184.9,654,184.6,572,184.9,557.2
		c-14.3-11.3-33.4-22-58.5-29.1c0.4,4.4,0.9,9,1.5,13.6c1.5,12.8,5.5,45.8-14.9,52.8c35.1,57.6,46.2,121.8,48.7,140.1
		c26.9-11.4,72.2-22.1,141-14.2c28.8,3.3,53,8.9,66.1,12.4c-59.5-90.3-21-292.8,13.1-461.8c-9.6-1.8-33.8-7.7-46.6-22.7
		c-1.3-1.6-1.2-4,0.4-5.4s4-1.2,5.4,0.4c11.2,13.1,33.6,18.5,42.3,20.1c0.6-2.9,1.2-5.9,1.8-8.8c12.4-61.2,23.7-117.5,27.7-157.1
		c-1.4,0.2-3,0.4-4.5,0.4c-5.7,0-11.6-1.8-14.7-7.6C392.6,88.5,393.3,86.2,395.2,85.2z M189.1,83.9c-0.9,0.5-7.6,3.7-14.6,3.7
		c-2.2,0-4.4-0.3-6.5-1.1c-3.8-1.5-6.6-4.4-8.1-8.5c-0.7-2,0.3-4.2,2.2-4.9c2-0.7,4.2,0.3,4.9,2.2c0.8,2.1,2,3.4,3.8,4.1
		c4.8,1.9,12.6-1.1,14.9-2.3c1.9-0.9,4.2-0.2,5.1,1.7C191.8,80.7,191,83,189.1,83.9z M107.2,389.1c-0.5,2-2.6,3.2-4.6,2.7
		c-6.6-1.7-12.2-0.1-12.3,0c-0.3,0.1-0.8,0.2-1.1,0.2c-1.6,0-3.1-1.1-3.6-2.7c-0.6-2,0.5-4.1,2.5-4.8c0.3-0.1,7.7-2.3,16.5,0
		C106.6,385,107.8,387.1,107.2,389.1z M275,323.3c-0.6,2-2.7,3.2-4.7,2.6c-18.7-5.6-29,4.7-29.1,4.8c-0.7,0.8-1.7,1.1-2.7,1.1
		s-1.9-0.4-2.7-1.1c-1.5-1.5-1.5-3.9-0.1-5.4c0.6-0.6,13.7-13.8,36.7-6.8C274.4,319.2,275.6,321.3,275,323.3z M175.6,503.5
		c-0.7,1.2-2,1.9-3.3,1.9c-0.7,0-1.3-0.2-1.9-0.5c-1.8-1-2.4-3.4-1.3-5.2c10.4-17.9,6.4-35.3,6.3-35.5c-0.5-2,0.8-4.1,2.8-4.6
		s4.1,0.8,4.6,2.8C182.9,463.2,187.6,483,175.6,503.5z M239.3,585.8c1-1.8,3.3-2.4,5.1-1.4c0.4,0.2,11.4,4.9,44.2-6.2
		c2-0.7,4.1,0.4,4.8,2.4c0.7,2-0.4,4.1-2.4,4.8c-18.1,6.2-30.3,7.8-38.1,7.8c-8.1,0-11.5-1.7-12.2-2.1
		C238.8,589.9,238.2,587.6,239.3,585.8z M239.5,603.3c1.3-1.6,3.6-1.9,5.2-0.7c0.4,0.3,10.5,6.5,44.6,0.3c2.1-0.4,4,1,4.4,3
		c0.4,2.1-1,4.1-3.1,4.4c-11.6,2.1-20.7,2.9-27.8,2.9c-16.3,0-22-4-22.8-4.6C238.5,607.3,238.2,605,239.5,603.3z M240.4,632.7
		c-1.3-1.6-1.1-4,0.6-5.3c1.6-1.3,3.9-1.1,5.3,0.5c0.3,0.3,8.8,8.6,43.4,10c2.1,0.1,3.8,1.8,3.7,4c-0.1,2-1.8,3.6-3.8,3.6h-0.1
		C250.5,643.9,241.3,633.9,240.4,632.7z M295.6,679.8c-0.3,1.9-1.9,3.2-3.7,3.2c-0.2,0-0.4,0-0.6-0.1c-38.5-5.9-46.5-16.9-47.2-18.2
		c-1.1-1.8-0.6-4.1,1.2-5.2c1.7-1.1,4-0.6,5.2,1.1c0.3,0.4,7.8,9.6,42.1,14.8C294.5,675.8,295.9,677.7,295.6,679.8z M352.6,349.4
		c2.2-0.1,3.9,1.5,4,3.6s-1.5,3.9-3.6,4c-0.8,0-1.6,0-2.5,0c-26.6,0-49.7-22.8-50.7-23.8c-1.5-1.5-1.5-3.9,0-5.4s3.9-1.5,5.4,0
		C305.5,328.1,328.4,350.7,352.6,349.4z M394.7,102.9c1.6,1.4,1.8,3.7,0.5,5.4c-2.5,3-5.8,4.7-9.5,4.9h-0.5
		c-8.3,0-15.8-7.5-16.7-8.4c-1.5-1.5-1.4-3.9,0.1-5.4c1.5-1.4,3.9-1.4,5.4,0.1c1.7,1.7,6.8,6.1,11.2,6.1h0.2c1.6,0,2.8-0.7,4-2.2
		C390.7,101.8,393.1,101.6,394.7,102.9z"/>
</g>
</svg>
