<?xml version="1.0" encoding="utf-8"?>
<!-- Generator: Adobe Illustrator 24.0.3, SVG Export Plug-In . SVG Version: 6.00 Build 0)  -->
<svg version="1.1" id="Layer_4" xmlns="http://www.w3.org/2000/svg" xmlns:xlink="http://www.w3.org/1999/xlink" x="0px" y="0px"
	 viewBox="0 0 433 269.9" style="enable-background:new 0 0 433 269.9;" xml:space="preserve">
<style type="text/css">
	.st0{fill:#9686F5;stroke:#000000;stroke-width:2;stroke-linecap:round;stroke-linejoin:round;stroke-miterlimit:10;}
	.st1{fill:#62E6AC;stroke:#000000;stroke-width:2;stroke-linecap:round;stroke-linejoin:round;stroke-miterlimit:10;}
	.st2{fill:#F9F9F9;stroke:#000000;stroke-width:2;stroke-linecap:round;stroke-linejoin:round;stroke-miterlimit:10;}
	.st3{opacity:0.2;}
	.st4{fill:#231F20;}
	.st5{opacity:0.2;fill:#231F20;}
	.st6{fill:none;stroke:#000000;stroke-width:2;stroke-linecap:round;stroke-linejoin:round;stroke-miterlimit:10;}
</style>
<g>
	<path class="st0" d="M297.2,137h-98.5c-5.5,0-10,4.5-10,10v4c0,5.5,4.5,10,10,10h98.5c5.5,0,10-4.5,10-10v-4
		C307.2,141.5,302.8,137,297.2,137z"/>
	<path class="st1" d="M160.5,25h-44c-5.5,0-10-4.5-10-10v-4c0-5.5,4.5-10,10-10h44c5.5,0,10,4.5,10,10v4
		C170.5,20.5,166.1,25,160.5,25z"/>
	<path class="st1" d="M160.5,93h-44c-5.5,0-10-4.5-10-10v-4c0-5.5,4.5-10,10-10h44c5.5,0,10,4.5,10,10v4
		C170.5,88.5,166.1,93,160.5,93z"/>
	<path class="st0" d="M192.5,59h-44c-5.5,0-10-4.5-10-10v-4c0-5.5,4.5-10,10-10h44c5.5,0,10,4.5,10,10v4
		C202.5,54.5,198.1,59,192.5,59z"/>
	<path class="st2" d="M242.7,59h-20.2c-5.5,0-10-4.5-10-10v-4c0-5.5,4.5-10,10-10h20.2c5.5,0,10,4.5,10,10v4
		C252.7,54.5,248.2,59,242.7,59z"/>
	<path class="st1" d="M142.8,127h-26.3c-5.5,0-10-4.5-10-10v-4c0-5.5,4.5-10,10-10h26.3c5.5,0,10,4.5,10,10v4
		C152.8,122.5,148.4,127,142.8,127z"/>
	<path class="st1" d="M142.8,263h-26.3c-5.5,0-10-4.5-10-10v-4c0-5.5,4.5-10,10-10h26.3c5.5,0,10,4.5,10,10v4
		C152.8,258.5,148.4,263,142.8,263z"/>
	<path class="st2" d="M422,59h-20.2c-5.5,0-10-4.5-10-10v-4c0-5.5,4.5-10,10-10H422c5.5,0,10,4.5,10,10v4C432,54.5,427.5,59,422,59z
		"/>
	<path class="st2" d="M371.8,59h-99c-5.5,0-10-4.5-10-10v-4c0-5.5,4.5-10,10-10h99c5.5,0,10,4.5,10,10v4
		C381.8,54.5,377.3,59,371.8,59z"/>
	<path class="st1" d="M168.7,229h-20.2c-5.5,0-10-4.5-10-10v-4c0-5.5,4.5-10,10-10h20.2c5.5,0,10,4.5,10,10v4
		C178.7,224.5,174.2,229,168.7,229z"/>
	<path class="st0" d="M200.7,195h-20.2c-5.5,0-10-4.5-10-10v-4c0-5.5,4.5-10,10-10h20.2c5.5,0,10,4.5,10,10v4
		C210.7,190.5,206.2,195,200.7,195z"/>
	<path class="st2" d="M324.3,195h-20.2c-5.5,0-10-4.5-10-10v-4c0-5.5,4.5-10,10-10h20.2c5.5,0,10,4.5,10,10v4
		C334.3,190.5,329.9,195,324.3,195z"/>
	<path class="st2" d="M274.2,195h-43.4c-5.5,0-10-4.5-10-10v-4c0-5.5,4.5-10,10-10h43.4c5.5,0,10,4.5,10,10v4
		C284.2,190.5,279.7,195,274.2,195z"/>
	<path class="st2" d="M327.8,137H348c5.5,0,10,4.5,10,10v4c0,5.5-4.5,10-10,10h-20.2c-5.5,0-10-4.5-10-10v-4
		C317.8,141.5,322.2,137,327.8,137z"/>
	<path class="st1" d="M148.5,137h20.2c5.5,0,10,4.5,10,10v4c0,5.5-4.5,10-10,10h-20.2c-5.5,0-10-4.5-10-10v-4
		C138.5,141.5,143,137,148.5,137z"/>
</g>
<g class="st3">
	<path class="st4" d="M307.2,147v4c0,5.5-4.5,10-10,10h-98.5c-4.3,0-8-2.8-9.4-6.6c1.1,0.4,2.2,0.6,3.4,0.6h98.5c5.5,0,10-4.5,10-10
		v-4c0-1.2-0.2-2.3-0.6-3.4C304.5,139,307.2,142.7,307.2,147z"/>
	<path class="st4" d="M170.5,11v4c0,5.5-4.5,10-10,10h-44c-4.3,0-8-2.8-9.4-6.6c1.1,0.4,2.2,0.6,3.4,0.6h44c5.5,0,10-4.5,10-10V5
		c0-1.2-0.2-2.3-0.6-3.4C167.8,3,170.5,6.7,170.5,11z"/>
	<path class="st4" d="M170.5,79v4c0,5.5-4.5,10-10,10h-44c-4.3,0-8-2.8-9.4-6.6c1.1,0.4,2.2,0.6,3.4,0.6h44c5.5,0,10-4.5,10-10v-4
		c0-1.2-0.2-2.3-0.6-3.4C167.8,71,170.5,74.7,170.5,79z"/>
	<path class="st4" d="M202.5,45v4c0,5.5-4.5,10-10,10h-44c-4.3,0-8-2.8-9.4-6.6c1.1,0.4,2.2,0.6,3.4,0.6h44c5.5,0,10-4.5,10-10v-4
		c0-1.2-0.2-2.3-0.6-3.4C199.8,37,202.5,40.7,202.5,45z"/>
	<path class="st4" d="M252.7,45v4c0,5.5-4.5,10-10,10h-20.2c-4.3,0-8-2.8-9.4-6.6c1.1,0.4,2.2,0.6,3.4,0.6h20.2c5.5,0,10-4.5,10-10
		v-4c0-1.2-0.2-2.3-0.6-3.4C250,37,252.7,40.7,252.7,45z"/>
	<path class="st4" d="M152.9,113v4c0,5.5-4.5,10-10,10h-26.3c-4.3,0-8-2.8-9.4-6.6c1.1,0.4,2.2,0.6,3.4,0.6h26.3c5.5,0,10-4.5,10-10
		v-4c0-1.2-0.2-2.3-0.6-3.4C150.1,105,152.9,108.7,152.9,113z"/>
	<path class="st4" d="M152.9,249v4c0,5.5-4.5,10-10,10h-26.3c-4.3,0-8-2.8-9.4-6.6c1.1,0.4,2.2,0.6,3.4,0.6h26.3c5.5,0,10-4.5,10-10
		v-4c0-1.2-0.2-2.3-0.6-3.4C150.1,241,152.9,244.7,152.9,249z"/>
	<path class="st4" d="M432,45v4c0,5.5-4.5,10-10,10h-20.2c-4.3,0-8-2.8-9.4-6.6c1.1,0.4,2.2,0.6,3.4,0.6H416c5.5,0,10-4.5,10-10v-4
		c0-1.2-0.2-2.3-0.6-3.4C429.2,37,432,40.7,432,45z"/>
	<path class="st4" d="M381.8,45v4c0,5.5-4.5,10-10,10h-99.1c-4.3,0-8-2.8-9.4-6.6c1.1,0.4,2.2,0.6,3.4,0.6h99.1c5.5,0,10-4.5,10-10
		v-4c0-1.2-0.2-2.3-0.6-3.4C379,37,381.8,40.7,381.8,45z"/>
	<path class="st4" d="M178.7,215v4c0,5.5-4.5,10-10,10h-20.2c-4.3,0-8-2.8-9.4-6.6c1.1,0.4,2.2,0.6,3.4,0.6h20.2c5.5,0,10-4.5,10-10
		v-4c0-1.2-0.2-2.3-0.6-3.4C176,207,178.7,210.7,178.7,215z"/>
	<path class="st4" d="M210.7,181v4c0,5.5-4.5,10-10,10h-20.2c-4.3,0-8-2.8-9.4-6.6c1.1,0.4,2.2,0.6,3.4,0.6h20.2c5.5,0,10-4.5,10-10
		v-4c0-1.2-0.2-2.3-0.6-3.4C208,173,210.7,176.7,210.7,181z"/>
	<path class="st4" d="M334.3,181v4c0,5.5-4.5,10-10,10h-20.2c-4.3,0-8-2.8-9.4-6.6c1.1,0.4,2.2,0.6,3.4,0.6h20.2c5.5,0,10-4.5,10-10
		v-4c0-1.2-0.2-2.3-0.6-3.4C331.6,173,334.3,176.7,334.3,181z"/>
	<path class="st4" d="M284.2,181v4c0,5.5-4.5,10-10,10h-43.4c-4.3,0-8-2.8-9.4-6.6c1.1,0.4,2.2,0.6,3.4,0.6h43.4c5.5,0,10-4.5,10-10
		v-4c0-1.2-0.2-2.3-0.6-3.4C281.4,173,284.2,176.7,284.2,181z"/>
	<path class="st4" d="M358,147v4c0,5.5-4.5,10-10,10h-20.2c-4.3,0-8-2.8-9.4-6.6c1.1,0.4,2.2,0.6,3.4,0.6H342c5.5,0,10-4.5,10-10v-4
		c0-1.2-0.2-2.3-0.6-3.4C355.2,139,358,142.7,358,147z"/>
	<path class="st4" d="M178.7,147v4c0,5.5-4.5,10-10,10h-20.2c-4.3,0-8-2.8-9.4-6.6c1.1,0.4,2.2,0.6,3.4,0.6h20.2c5.5,0,10-4.5,10-10
		v-4c0-1.2-0.2-2.3-0.6-3.4C176,139,178.7,142.7,178.7,147z"/>
</g>
<circle class="st2" cx="24.8" cy="30.4" r="23.8"/>
<path class="st5" d="M48.5,30.4c0,13.1-10.6,23.8-23.8,23.8c-8.1,0-15.2-4-19.5-10.2c3.8,2.7,8.5,4.2,13.5,4.2
	c13.1,0,23.8-10.6,23.8-23.8c0-5-1.6-9.7-4.2-13.5C44.5,15.1,48.5,22.3,48.5,30.4z"/>
<path class="st0" d="M96.5,124.1c0,0-3.2-60.8-9.6-67.1c-0.3-0.3-0.6-0.6-0.9-0.8l8.1-8.1c0,0-14.3-5.2-14.8-16.7
	C77.9,33,62.7,42.9,51.8,49.9c-0.2,0.1-4.5,2.9-7.6,4.9c-3.1,2-5.9,4.6-7.9,7.8c-7.9,12.3-6.4,28.8,4.6,39.5c0,0,0,0,0.1,0.1
	c1.1,1.2,11.7,12.5,14.6,29C81.1,133.4,96.5,124.1,96.5,124.1z"/>
<path class="st5" d="M96.5,124.1c0,0-15.4,9.3-41,7.1c24.4-22.2,3.7-48,3.7-48l26.9-27c0.3,0.3,0.6,0.5,0.9,0.8
	C93.3,63.2,96.5,124.1,96.5,124.1z"/>
<path class="st1" d="M96.5,231.6V124.1c0,0-15.4,9.3-41,7.1c2.3,13.2-0.4,29.8-16.9,47.3c-0.8,0.8-1,2.1-0.6,3.1
	c0.6,1.5,1.4,3.9,1.3,6.2c-0.1,2.7,2.2,4.9,4.9,4.6c6.6-0.7,16.7-2.6,25.2-7.5v46.7C81.9,243.7,96.5,231.6,96.5,231.6z"/>
<path class="st6" d="M83.6,146.7c9.5,36.3-24.1,44-39.3,45.7"/>
<line class="st2" x1="94.2" y1="48" x2="59.2" y2="83.2"/>
<line class="st5" x1="89.9" y1="60.3" x2="89.9" y2="60.3"/>
<g>
	<path class="st0" d="M33.1,198.1c-1.7,8.7-8,13.1-11.6,11c-3.7-2,0.8-6.2,2.1-13.6c1.3-7.3-1.5-13.8,2.7-13.9
		C30.4,181.5,34.8,189.3,33.1,198.1z"/>
</g>
<g>
	<path class="st0" d="M82.2,262.3c-6.6-7-6.3-15.3-2.2-17.2c4.1-1.9,4.9,4.6,10.5,10.4c5.6,5.8,13,7.5,10.4,11.2
		C98.4,270.5,88.8,269.3,82.2,262.3z"/>
</g>
<path class="st2" d="M116.9,19.7L87.1,44.1c-2.1-1.6-4.3-3.7-5.8-6.3l30.1-24.7c1.8-1.5,4.5-1.2,6,0.6v0
	C118.9,15.6,118.7,18.3,116.9,19.7z"/>
<path class="st5" d="M69.5,205v-20.1c7.8-4.4,14.2-11.4,15.5-22.2C85,162.8,92.9,185.8,69.5,205z"/>
</svg>
