<?xml version="1.0" encoding="utf-8"?>
<!-- Generator: Adobe Illustrator 23.0.0, SVG Export Plug-In . SVG Version: 6.00 Build 0)  -->
<svg version="1.1" id="Layer_1" xmlns="http://www.w3.org/2000/svg" xmlns:xlink="http://www.w3.org/1999/xlink" x="0px" y="0px"
	 viewBox="0 0 751 751" style="enable-background:new 0 0 751 751;" xml:space="preserve">
<style type="text/css">
	.st0{fill:#FFB900;}
	.st1{fill:none;stroke:#FFFFFF;stroke-miterlimit:10;}
</style>
<g>
	<circle class="st0" cx="375.5" cy="375.5" r="95.64"/>
	<g>
		<g>
			<circle class="st1" cx="471.14" cy="375.5" r="31.55"/>
			<circle class="st1" cx="515.66" cy="393.62" r="10.29"/>
			<circle class="st1" cx="526.35" cy="418.85" r="7.27"/>
			<circle class="st1" cx="559.84" cy="403.08" r="17.42"/>
			<circle class="st1" cx="576.19" cy="379.3" r="4.62"/>
			<circle class="st1" cx="615.12" cy="372.43" r="11.5"/>
			<circle class="st1" cx="611.93" cy="352.99" r="3.11"/>
			<circle class="st1" cx="645.05" cy="335.52" r="5.08"/>
			<circle class="st1" cx="674.42" cy="353.59" r="22.03"/>
			<circle class="st1" cx="685.11" cy="381.24" r="5.08"/>
			<circle class="st1" cx="710.14" cy="374.27" r="7.69"/>
			<circle class="st1" cx="713.72" cy="396" r="5.8"/>
			<circle class="st1" cx="738.16" cy="404.97" r="12.34"/>
			<circle class="st1" cx="591.5" cy="381.89" r="5.99"/>
			<circle class="st1" cx="631.92" cy="361.43" r="5.01"/>
			<circle class="st1" cx="494.13" cy="409.18" r="4.22"/>
		</g>
		<g>
			<circle class="st1" cx="443.13" cy="443.13" r="10.62"/>
			<circle class="st1" cx="457.99" cy="487.22" r="3.89"/>
			<circle class="st1" cx="454.29" cy="522.47" r="5.62"/>
			<circle class="st1" cx="489.23" cy="520.12" r="21.84"/>
			<circle class="st1" cx="506.28" cy="544.36" r="3.26"/>
			<circle class="st1" cx="549.32" cy="531.17" r="7.49"/>
			<circle class="st1" cx="581.48" cy="534.85" r="3.11"/>
			<circle class="st1" cx="594.37" cy="537.84" r="5.08"/>
			<circle class="st1" cx="602.36" cy="571.37" r="22.03"/>
			<circle class="st1" cx="590.37" cy="598.48" r="5.08"/>
			<circle class="st1" cx="616.71" cy="614.97" r="4.11"/>
			<circle class="st1" cx="598.52" cy="636.6" r="16.11"/>
			<circle class="st1" cx="615.05" cy="653.13" r="3.18"/>
			<circle class="st1" cx="521.97" cy="522.9" r="5.99"/>
			<circle class="st1" cx="566.77" cy="546.87" r="5.01"/>
			<circle class="st1" cx="435.57" cy="477.23" r="15.24"/>
		</g>
		<g>
			<circle class="st1" cx="307.87" cy="443.13" r="10.62"/>
			<circle class="st1" cx="263.78" cy="457.99" r="3.89"/>
			<circle class="st1" cx="228.53" cy="454.29" r="5.62"/>
			<circle class="st1" cx="230.88" cy="489.23" r="21.84"/>
			<circle class="st1" cx="206.64" cy="506.28" r="3.26"/>
			<circle class="st1" cx="219.83" cy="549.32" r="7.49"/>
			<circle class="st1" cx="216.15" cy="581.48" r="3.11"/>
			<circle class="st1" cx="213.16" cy="594.37" r="5.08"/>
			<circle class="st1" cx="179.63" cy="602.36" r="22.03"/>
			<circle class="st1" cx="152.52" cy="590.37" r="5.08"/>
			<circle class="st1" cx="136.03" cy="616.71" r="4.11"/>
			<circle class="st1" cx="114.4" cy="598.52" r="16.11"/>
			<circle class="st1" cx="97.87" cy="615.05" r="3.18"/>
			<circle class="st1" cx="228.1" cy="521.97" r="5.99"/>
			<circle class="st1" cx="204.13" cy="566.77" r="5.01"/>
			<circle class="st1" cx="273.77" cy="435.57" r="15.24"/>
		</g>
		<g>
			<circle class="st1" cx="307.87" cy="307.87" r="10.62"/>
			<circle class="st1" cx="293.01" cy="263.78" r="3.89"/>
			<circle class="st1" cx="296.71" cy="228.53" r="5.62"/>
			<circle class="st1" cx="261.77" cy="230.88" r="21.84"/>
			<circle class="st1" cx="244.72" cy="206.64" r="3.26"/>
			<circle class="st1" cx="201.68" cy="219.83" r="7.49"/>
			<circle class="st1" cx="169.52" cy="216.15" r="3.11"/>
			<circle class="st1" cx="156.63" cy="213.16" r="5.08"/>
			<circle class="st1" cx="148.64" cy="179.63" r="22.03"/>
			<circle class="st1" cx="160.63" cy="152.52" r="5.08"/>
			<circle class="st1" cx="134.29" cy="136.03" r="4.11"/>
			<circle class="st1" cx="152.48" cy="114.4" r="16.11"/>
			<circle class="st1" cx="135.95" cy="97.87" r="3.18"/>
			<circle class="st1" cx="229.03" cy="228.1" r="5.99"/>
			<circle class="st1" cx="184.23" cy="204.13" r="5.01"/>
			<circle class="st1" cx="315.43" cy="273.77" r="15.24"/>
		</g>
		<g>
			<circle class="st1" cx="443.13" cy="307.87" r="10.62"/>
			<circle class="st1" cx="487.22" cy="293.01" r="3.89"/>
			<circle class="st1" cx="522.47" cy="296.71" r="5.62"/>
			<circle class="st1" cx="520.12" cy="261.77" r="21.84"/>
			<circle class="st1" cx="544.36" cy="244.72" r="3.26"/>
			<circle class="st1" cx="531.17" cy="201.68" r="7.49"/>
			<circle class="st1" cx="534.85" cy="169.52" r="3.11"/>
			<circle class="st1" cx="537.84" cy="156.63" r="5.08"/>
			<circle class="st1" cx="571.37" cy="148.64" r="22.03"/>
			<circle class="st1" cx="598.48" cy="160.63" r="5.08"/>
			<circle class="st1" cx="614.97" cy="134.29" r="4.11"/>
			<circle class="st1" cx="636.6" cy="152.48" r="16.11"/>
			<circle class="st1" cx="653.13" cy="135.95" r="3.18"/>
			<circle class="st1" cx="522.9" cy="229.03" r="5.99"/>
			<circle class="st1" cx="546.87" cy="184.23" r="5.01"/>
			<circle class="st1" cx="477.23" cy="315.43" r="15.24"/>
		</g>
		<g>
			<circle class="st1" cx="375.5" cy="471.14" r="31.55"/>
			<circle class="st1" cx="357.38" cy="515.66" r="10.29"/>
			<circle class="st1" cx="332.15" cy="526.35" r="7.27"/>
			<circle class="st1" cx="347.92" cy="559.84" r="17.42"/>
			<circle class="st1" cx="371.7" cy="576.19" r="4.62"/>
			<circle class="st1" cx="378.57" cy="615.12" r="11.5"/>
			<circle class="st1" cx="398.01" cy="611.93" r="3.11"/>
			<circle class="st1" cx="415.48" cy="645.05" r="5.08"/>
			<circle class="st1" cx="397.41" cy="674.42" r="22.03"/>
			<circle class="st1" cx="369.76" cy="685.11" r="5.08"/>
			<circle class="st1" cx="376.73" cy="710.14" r="7.69"/>
			<circle class="st1" cx="355" cy="713.72" r="5.8"/>
			<circle class="st1" cx="346.03" cy="738.16" r="12.34"/>
			<circle class="st1" cx="369.11" cy="591.5" r="5.99"/>
			<circle class="st1" cx="389.57" cy="631.92" r="5.01"/>
			<circle class="st1" cx="341.82" cy="494.13" r="4.22"/>
		</g>
		<g>
			<circle class="st1" cx="279.86" cy="375.5" r="31.55"/>
			<circle class="st1" cx="235.34" cy="357.38" r="10.29"/>
			<circle class="st1" cx="224.65" cy="332.15" r="7.27"/>
			<circle class="st1" cx="191.16" cy="347.92" r="17.42"/>
			<circle class="st1" cx="174.81" cy="371.7" r="4.62"/>
			<circle class="st1" cx="135.88" cy="378.57" r="11.5"/>
			<circle class="st1" cx="139.07" cy="398.01" r="3.11"/>
			<circle class="st1" cx="105.95" cy="415.48" r="5.08"/>
			<circle class="st1" cx="76.58" cy="397.41" r="22.03"/>
			<circle class="st1" cx="65.89" cy="369.76" r="5.08"/>
			<circle class="st1" cx="40.86" cy="376.73" r="7.69"/>
			<circle class="st1" cx="37.28" cy="355" r="5.8"/>
			<circle class="st1" cx="12.84" cy="346.03" r="12.34"/>
			<circle class="st1" cx="159.5" cy="369.11" r="5.99"/>
			<circle class="st1" cx="119.08" cy="389.57" r="5.01"/>
			<circle class="st1" cx="256.87" cy="341.82" r="4.22"/>
		</g>
		<g>
			<circle class="st1" cx="375.5" cy="279.86" r="31.55"/>
			<circle class="st1" cx="393.62" cy="235.34" r="10.29"/>
			<circle class="st1" cx="418.85" cy="224.65" r="7.27"/>
			<circle class="st1" cx="403.08" cy="191.16" r="17.42"/>
			<circle class="st1" cx="379.3" cy="174.81" r="4.62"/>
			<circle class="st1" cx="372.43" cy="135.88" r="11.5"/>
			<circle class="st1" cx="352.99" cy="139.07" r="3.11"/>
			<circle class="st1" cx="335.52" cy="105.95" r="5.08"/>
			<circle class="st1" cx="353.59" cy="76.58" r="22.03"/>
			<circle class="st1" cx="381.24" cy="65.89" r="5.08"/>
			<circle class="st1" cx="374.27" cy="40.86" r="7.69"/>
			<circle class="st1" cx="396" cy="37.28" r="5.8"/>
			<circle class="st1" cx="404.97" cy="12.84" r="12.34"/>
			<circle class="st1" cx="381.89" cy="159.5" r="5.99"/>
			<circle class="st1" cx="361.43" cy="119.08" r="5.01"/>
			<circle class="st1" cx="409.18" cy="256.87" r="4.22"/>
		</g>
	</g>
</g>
</svg>
