<?xml version="1.0" encoding="utf-8"?>
<!-- Generator: Adobe Illustrator 23.0.0, SVG Export Plug-In . SVG Version: 6.00 Build 0)  -->
<svg version="1.1" id="Layer_1" xmlns="http://www.w3.org/2000/svg" xmlns:xlink="http://www.w3.org/1999/xlink" x="0px" y="0px"
	 viewBox="0 0 199 60" style="enable-background:new 0 0 199 60;" xml:space="preserve">
<style type="text/css">
	.st0{fill:#FFFFFF;}
</style>
<g>
	<g>
		<path class="st0" d="M29.94,15.41c6.86,0,12.62,4.74,14.17,11.13h3.81c-1.49-7.8-7.92-13.83-15.91-14.74V8.45
			c1.43-0.75,2.4-2.24,2.4-3.97c0-2.47-2-4.48-4.48-4.48c-2.47,0-4.48,2.01-4.48,4.48c0,1.72,0.97,3.22,2.4,3.97v3.35
			c-7.99,0.9-14.42,6.94-15.91,14.74h3.81C17.32,20.15,23.07,15.41,29.94,15.41z"/>
		<path class="st0" d="M29.94,44.59c-6.87,0-12.62-4.74-14.17-11.13h-3.81c1.49,7.8,7.92,13.83,15.91,14.74v3.35
			c-1.43,0.75-2.4,2.25-2.4,3.97c0,2.47,2.01,4.48,4.48,4.48c2.47,0,4.48-2.01,4.48-4.48c0-1.72-0.97-3.22-2.4-3.97V48.2
			c7.99-0.9,14.42-6.94,15.91-14.74h-3.81C42.56,39.85,36.81,44.59,29.94,44.59z"/>
	</g>
	<path class="st0" d="M55.52,25.47c-1.72,0-3.22,0.98-3.97,2.4h-9.39c-1.01-5.84-6.1-10.29-12.23-10.29
		c-6.13,0-11.22,4.44-12.23,10.29H8.45c-0.75-1.43-2.24-2.4-3.97-2.4C2.01,25.47,0,27.47,0,29.95c0,2.47,2.01,4.48,4.48,4.48
		c1.72,0,3.22-0.97,3.97-2.4h9.25c0.97,5.89,6.08,10.39,12.25,10.39c6.17,0,11.28-4.49,12.25-10.39h9.37
		c0.75,1.43,2.24,2.4,3.97,2.4c2.47,0,4.48-2.01,4.48-4.48C60,27.47,58,25.47,55.52,25.47 M29.94,38.09c-4.47,0-8.09-3.62-8.09-8.09
		c0-4.47,3.62-8.09,8.09-8.09c4.47,0,8.09,3.62,8.09,8.09C38.03,34.47,34.41,38.09,29.94,38.09z"/>
	<path class="st0" d="M29.94,24.25c3.18,0,5.75,2.57,5.75,5.75c0,3.18-2.58,5.75-5.75,5.75c-3.18,0-5.75-2.58-5.75-5.75
		C24.19,26.82,26.77,24.25,29.94,24.25z"/>
	<g>
		<path class="st0" d="M79.06,36.61c-0.56,0.31-1.35,0.54-2.27,0.54c-1.64,0-2.65-1.01-2.65-3.13v-6.81h-1.69v-2.11h1.69v-3.37
			l2.27-1.22v4.59h2.92v2.11h-2.92v6.41c0,1.1,0.36,1.42,1.21,1.42c0.61,0,1.28-0.22,1.71-0.47L79.06,36.61z"/>
		<path class="st0" d="M90.04,33.55c-0.54,0.74-1.62,1.51-2.86,1.51c-1.53,0-2.27-0.79-2.27-1.96c0-1.08,0.94-1.75,2.43-1.75
			c1.26,0,2.07,0.2,2.7,0.52V33.55 M92.31,36.9v-8.1c0-2.68-1.8-3.96-4.43-3.96c-1.66,0-2.92,0.36-4.05,1.06l0.9,1.75
			c0.92-0.52,1.87-0.74,3.08-0.74c1.44,0,2.23,0.72,2.23,2v0.88c-0.65-0.29-1.53-0.45-2.63-0.45c-2.68,0-4.7,1.19-4.7,3.82
			c0,2.9,2.18,3.98,4.09,3.98c1.28,0,2.43-0.61,3.24-1.42v1.17H92.31z"/>
		<path class="st0" d="M103.18,27.54c-0.5-0.27-1.01-0.43-1.78-0.43c-1.46,0-2.32,1.03-2.32,3.04v6.75h-2.32V25.09h2.32v1.13
			c0.54-0.79,1.53-1.37,2.7-1.37c0.94,0,1.53,0.18,2,0.49L103.18,27.54z"/>
		<path class="st0" d="M113.79,33.5c-0.61,0.77-1.57,1.51-2.68,1.51c-1.71,0-2.65-1.3-2.65-4.27c0-2.5,0.9-3.76,2.56-3.76
			c1.17,0,2.25,0.85,2.77,1.55V33.5 M116.06,36.78V25.09h-2.32v1.1c-0.63-0.72-1.75-1.35-2.95-1.35c-2.43,0-4.65,1.91-4.65,5.96
			c0,4.5,2.02,6.34,4.54,6.34c1.24,0,2.2-0.58,3.06-1.37v1.21c0,2.45-0.72,3.35-4.05,3.51l0.01,2.01
			C113.97,42.37,116.06,40.38,116.06,36.78z"/>
		<path class="st0" d="M127.84,29.91h-5.49c0.2-1.89,1.15-2.97,2.7-2.97C126.97,26.94,127.73,28.29,127.84,29.91 M130.18,30.76
			c0-3.19-1.62-5.91-4.97-5.91c-3.06,0-5.17,2.16-5.17,6.16c0,3.91,2.34,6.14,5.11,6.14c1.8,0,3.04-0.56,4.07-1.55l-1.37-1.48
			c-0.79,0.58-1.57,0.94-2.56,0.94c-1.44,0-2.72-0.97-2.97-3.24h7.8C130.14,31.57,130.18,31.19,130.18,30.76z"/>
		<path class="st0" d="M139.65,36.61c-0.56,0.31-1.35,0.54-2.27,0.54c-1.64,0-2.65-1.01-2.65-3.13v-6.81h-1.69v-2.11h1.69v-3.37
			l2.27-1.22v4.59h2.93v2.11h-2.93v6.41c0,1.1,0.36,1.42,1.22,1.42c0.61,0,1.28-0.22,1.71-0.47L139.65,36.61z"/>
		<path class="st0" d="M151.79,31.26c0,2.5-0.9,3.75-2.56,3.75c-1.17,0-2.25-0.85-2.77-1.55v-4.97c0.61-0.77,1.58-1.51,2.68-1.51
			C150.85,26.98,151.79,28.29,151.79,31.26 M154.11,31.19c0-4.5-2-6.34-4.54-6.34c-1.24,0-2.23,0.58-3.08,1.37v-5.71l-2.29,1.19
			v15.2h2.29v-1.1c0.65,0.72,1.78,1.35,2.97,1.35C151.9,37.15,154.11,35.24,154.11,31.19z"/>
		<path class="st0" d="M164.72,33.55c-0.54,0.74-1.62,1.51-2.86,1.51c-1.53,0-2.27-0.79-2.27-1.96c0-1.08,0.94-1.75,2.43-1.75
			c1.26,0,2.07,0.2,2.7,0.52V33.55 M166.99,36.9v-8.1c0-2.68-1.8-3.96-4.43-3.96c-1.66,0-2.92,0.36-4.05,1.06l0.9,1.75
			c0.92-0.52,1.87-0.74,3.08-0.74c1.44,0,2.23,0.72,2.23,2v0.88c-0.65-0.29-1.53-0.45-2.63-0.45c-2.68,0-4.7,1.19-4.7,3.82
			c0,2.9,2.18,3.98,4.09,3.98c1.28,0,2.43-0.61,3.24-1.42v1.17H166.99z"/>
		<path class="st0" d="M175.27,37.15c-1.6,0-3.33-0.63-4.52-1.51l1.06-1.75c1.1,0.76,2.34,1.17,3.44,1.17c1.46,0,2.16-0.47,2.16-1.3
			c0-0.9-1.04-1.33-2.74-1.98c-2.54-0.99-3.46-1.84-3.46-3.71c0-2.11,1.67-3.21,4.03-3.21c1.48,0,2.95,0.54,4,1.3l-1.01,1.78
			c-0.97-0.67-1.93-1.01-3.06-1.01c-1.12,0-1.62,0.45-1.62,1.08c0,0.58,0.41,1.01,2.18,1.71c2.63,1.01,3.98,1.73,3.98,3.96
			C179.7,36.27,177.58,37.15,175.27,37.15z"/>
		<path class="st0" d="M190.81,29.91h-5.49c0.2-1.89,1.15-2.97,2.7-2.97C189.93,26.94,190.69,28.29,190.81,29.91 M193.15,30.76
			c0-3.19-1.62-5.91-4.97-5.91c-3.06,0-5.17,2.16-5.17,6.16c0,3.91,2.34,6.14,5.11,6.14c1.8,0,3.04-0.56,4.07-1.55l-1.37-1.48
			c-0.79,0.58-1.57,0.94-2.56,0.94c-1.44,0-2.72-0.97-2.97-3.24h7.8C193.1,31.57,193.15,31.19,193.15,30.76z"/>
	</g>
	<g>
		<path class="st0" d="M196.81,29.01c-1.25,0-2.19-0.95-2.19-2.19c0-1.25,0.95-2.19,2.19-2.19c1.25,0,2.19,0.95,2.19,2.19
			C199,28.06,198.05,29.01,196.81,29.01z M196.81,25.05c-1,0-1.74,0.71-1.74,1.76c0,1.06,0.75,1.76,1.74,1.76
			c1,0,1.75-0.71,1.75-1.76C198.55,25.75,197.81,25.05,196.81,25.05z M197.2,27.95l-0.39-0.8h-0.27v0.8h-0.65v-2.38h1.07
			c0.56,0,0.93,0.21,0.93,0.78c0,0.36-0.17,0.58-0.43,0.7l0.47,0.91H197.2z M196.94,26.11h-0.4v0.52h0.39c0.22,0,0.3-0.09,0.3-0.26
			C197.23,26.21,197.15,26.11,196.94,26.11z"/>
	</g>
</g>
</svg>
